<?xml version="1.0" standalone="no"?>
<!DOCTYPE svg PUBLIC "-//W3C//DTD SVG 1.1//EN" "http://www.w3.org/Graphics/SVG/1.1/DTD/svg11.dtd" >
<svg xmlns="http://www.w3.org/2000/svg" xmlns:xlink="http://www.w3.org/1999/xlink" version="1.1">
<metadata></metadata>
<defs>
<font id="rowdieslight" horiz-adv-x="552" >
<font-face units-per-em="2048" ascent="1638" descent="-410" />
<missing-glyph horiz-adv-x="491" />
<glyph horiz-adv-x="0" />
<glyph horiz-adv-x="682" />
<glyph horiz-adv-x="0" />
<glyph horiz-adv-x="0" />
<glyph unicode="&#xd;" horiz-adv-x="491" />
<glyph unicode=" "  horiz-adv-x="491" />
<glyph unicode="&#x09;" horiz-adv-x="491" />
<glyph unicode="&#xa0;" horiz-adv-x="491" />
<glyph unicode="!" horiz-adv-x="696" d="M164 164l184 184l184 -184l-184 -184zM164 1307l164 163l161 -165l-145 -773h-41z" />
<glyph unicode="&#x22;" horiz-adv-x="696" d="M61 1454l123 205l123 -205l-102 -471h-41zM389 1454l123 205l123 -205l-102 -471h-41z" />
<glyph unicode="#" horiz-adv-x="1888" d="M102 356v226h369l57 143l37 143h-340v226h400l92 356h299v-123l-86 -233h289l110 356h297v-123l-96 -233h256v-226h-348l-60 -143l-37 -143h322v-226h-379l-90 -356h-295v123l78 233h-295l-98 -356h-297v123l94 233h-279zM743 582h310l82 245l12 41h-301l-92 -245z" />
<glyph unicode="$" horiz-adv-x="1454" d="M102 152l101 243q102 -53 205.5 -88t220.5 -51l12 287q-27 4 -47 8q-180 31 -288.5 81t-156 129t-47.5 193q0 176 137.5 272.5t376.5 110.5l-6 117h242l-6 -117q190 -10 285.5 -45t134.5 -57l-82 -244q-47 16 -132 40t-218 38l-13 -287q20 -4 39 -6q143 -23 254 -67.5 t174.5 -124.5t63.5 -209q0 -176 -129 -273.5t-375 -117.5l4 -107h-242l4 109q-104 10 -208.5 35.5t-185.5 59.5t-118 71zM389 932q0 -59 73 -85t179 -42l-12 276h-27q-102 0 -157.5 -39.5t-55.5 -109.5zM821 512l15 -268q217 4 217 149q0 45 -64.5 72t-167.5 47z" />
<glyph unicode="%" horiz-adv-x="1835" d="M102 1130q0 88 38 160t119 115t208 43q125 0 206 -43t119.5 -114.5t38.5 -160.5q0 -88 -38.5 -159.5t-119.5 -114.5t-206 -43q-127 0 -208 43t-119 114.5t-38 159.5zM201 0v123l735 731l420 594h299v-123l-692 -674l-463 -651h-299zM336 1130q0 -25 8 -56.5t36 -54 t87 -22.5q57 0 85 22.5t37 54.5t9 56q0 25 -9 57t-37 54.5t-85 22.5q-59 0 -87 -22.5t-36 -54.5t-8 -57zM1004 317q0 88 37.5 160t118.5 115t208 43q125 0 206 -43t120 -114.5t39 -160.5q0 -86 -39 -158.5t-120 -115.5t-206 -43q-127 0 -208 43t-118.5 115.5t-37.5 158.5z M1237 317q0 -25 8 -55.5t36 -54t87 -23.5q57 0 85 23.5t37 54.5t9 55q0 25 -9 55.5t-37 54.5t-85 24q-59 0 -87 -24t-36 -54.5t-8 -55.5z" />
<glyph unicode="&#x26;" horiz-adv-x="1656" d="M102 403q0 104 45.5 182.5t112 129.5t132 80.5t108.5 40.5q-33 35 -67 102.5t-34 177.5q0 117 62.5 203t187.5 131q72 27 140.5 28t124 -8.5t85.5 -17.5l162 -164l-125 -170l-202 84q-59 -2 -95.5 -35.5t-36.5 -93.5q0 -76 34 -126t75 -91l334 -336l20 23l-53 301l21 123 l323 -41v-330l-162 -215l150 -137l151 -121v-123h-307l-194 199q-27 -18 -74 -54t-114.5 -74t-156.5 -64.5t-200 -26.5q-205 0 -326 109.5t-121 313.5zM408 440q0 -96 68.5 -145t174.5 -49q96 0 171 28.5t124 69.5l-348 336q-39 -12 -84 -43t-75.5 -79t-30.5 -118z" />
<glyph unicode="'" horiz-adv-x="368" d="M61 1454l123 205l123 -205l-102 -471h-41z" />
<glyph unicode="(" horiz-adv-x="604" d="M61 756q0 -211 33 -365.5t84 -261t108.5 -171t107.5 -93.5t81 -29l68 164q-35 35 -79 85t-85 133t-67.5 214t-26.5 324q0 195 27.5 316.5t69.5 193t85 112.5t76 74l-68 164q-31 0 -81 -22.5t-107.5 -78t-108.5 -153.5t-84 -246.5t-33 -359.5z" />
<glyph unicode=")" horiz-adv-x="604" d="M61 0q35 35 79 85t85 133t67.5 214t26.5 324q0 195 -27.5 316.5t-69.5 193t-85 112.5t-76 74l68 164q31 0 81 -22.5t107.5 -78t108.5 -153.5t84 -246.5t33 -359.5t-33 -365.5t-84 -261t-108.5 -171t-107.5 -93.5t-81 -29z" />
<glyph unicode="*" horiz-adv-x="669" d="M61 1247l50 156l49 -14l166 -127l-76 194v51h164v-51l-68 -192l162 127l49 14l51 -158l-49 -18l-209 8l178 -109l29 -43l-133 -96l-33 41l-55 203l-55 -205l-31 -41l-133 96l28 45l177 115l-213 -12z" />
<glyph unicode="+" horiz-adv-x="1064" d="M102 532v164h349v348h163v-348h349v-164h-349v-348h-163v348h-349z" />
<glyph unicode="," horiz-adv-x="573" d="M102 164l164 158l205 -179l-295 -583l-53 18l102 422z" />
<glyph unicode="-" horiz-adv-x="860" d="M102 410v204h656v-204h-656z" />
<glyph unicode="." horiz-adv-x="573" d="M102 164l185 184l184 -184l-184 -184z" />
<glyph unicode="/" horiz-adv-x="851" d="M0 -219l625 1669h227l-627 -1669h-225z" />
<glyph unicode="0" horiz-adv-x="1302" d="M82 725q0 264 69.5 428t197.5 240.5t302 76.5q176 0 303 -77.5t197 -241.5t70 -426q0 -272 -70 -436t-197 -236.5t-303 -72.5q-174 0 -302 71.5t-197.5 234.5t-69.5 439zM387 725q0 -246 63.5 -348.5t200.5 -102.5q141 0 202.5 101.5t61.5 349.5q0 233 -61 342t-203 109 q-137 0 -200.5 -110t-63.5 -341z" />
<glyph unicode="1" horiz-adv-x="745" d="M61 1104v223l541 123l21 -123l-21 -205v-1122h-295v1104h-246z" />
<glyph unicode="2" horiz-adv-x="1198" d="M72 0v223l47 32t120.5 83t152.5 112.5t140 120.5q133 125 199 223.5t66 217.5q0 80 -50.5 126t-164.5 46q-86 0 -174.5 -18.5t-164 -46t-128.5 -56.5v287q20 10 82.5 37.5t165 52t241.5 24.5q260 0 386 -111.5t126 -316.5q0 -127 -52 -235.5t-137 -198.5t-182.5 -163.5 t-187.5 -131.5l10 -41l549 41v-307h-1044z" />
<glyph unicode="3" horiz-adv-x="1226" d="M82 90l82 285l389 -111q145 0 205.5 56.5t60.5 146.5q0 66 -38 104.5t-126 38.5h-260v264h209q195 0 195 173q0 137 -191 137q-117 0 -207 -21.5t-154.5 -49.5t-103.5 -46v287q59 39 172 76.5t295 37.5q231 0 351 -101t120 -286q0 -106 -33.5 -174.5t-84.5 -109.5 q88 -55 135 -132t47 -196q0 -156 -68.5 -265.5t-192.5 -166.5t-290 -57q-66 0 -124 4t-110 12z" />
<glyph unicode="4" horiz-adv-x="1382" d="M20 205v209l666 1036h410l41 -125l-41 -205v-645h266v-250l-266 -20v-205h-295v205h-781zM395 475h406v610h-37z" />
<glyph unicode="5" horiz-adv-x="1239" d="M82 90l82 285l362 -113q141 0 216 52.5t75 150.5q0 92 -51 147.5t-197 55.5h-426v782h912v-285l-512 21h-86v-279h137q285 0 414 -108.5t129 -321.5q0 -145 -64.5 -258t-187.5 -176t-297 -63q-78 0 -134.5 4t-113.5 12z" />
<glyph unicode="6" horiz-adv-x="1325" d="M82 682q0 207 58.5 356.5t155.5 244.5t217 141t243 46q104 0 162.5 -16t103.5 -37l186 -168l-143 -233l-309 170q-90 0 -170 -45t-131.5 -129t-57.5 -205l324 82q143 0 261 -46t189.5 -143.5t71.5 -255.5q0 -211 -142.5 -337.5t-400.5 -126.5q-170 0 -311 76.5t-224 232 t-83 393.5zM424 559q4 -66 36 -133.5t95.5 -112.5t163.5 -45q102 0 160.5 49.5t58.5 139.5q0 86 -65.5 132t-170.5 46q-88 0 -165.5 -24.5t-112.5 -51.5z" />
<glyph unicode="7" horiz-adv-x="1114" d="M61 1145v305h992v-207l-338 -915l-103 -328h-346l383 971l109 215h-62z" />
<glyph unicode="8" horiz-adv-x="1300" d="M82 424q0 131 55.5 211t145.5 123q-57 49 -98.5 124.5t-41.5 184.5q0 176 125 289.5t385 113.5q262 0 383 -104t121 -299q0 -98 -41 -178t-100 -127q86 -43 144.5 -127t58.5 -211q0 -172 -78 -268.5t-205 -136t-279 -39.5q-113 0 -216 21.5t-184 71.5t-128 136t-47 215z M399 473q0 -113 73.5 -160t184.5 -47t186 37t75 113q0 106 -105.5 170.5t-316.5 66.5q-41 -31 -69 -79t-28 -101zM449 1024q0 -63 31.5 -101t79.5 -54.5t97 -16.5q100 0 149.5 41t49.5 111q0 84 -46 132t-153 48q-92 0 -150 -41t-58 -119z" />
<glyph unicode="9" horiz-adv-x="1325" d="M82 1004q0 117 60.5 224t181 174.5t303.5 67.5q180 0 318 -73.5t218 -236.5t80 -435q0 -238 -82 -404.5t-228 -253.5t-341 -87q-82 0 -131 7t-92 15l-250 150l121 241l329 -129q84 0 161 38t128 117t60 199l-336 -61q-145 0 -258 41t-177.5 138.5t-64.5 267.5zM387 971 q0 -82 47.5 -120t147.5 -38q92 0 188 6t148 15q-12 346 -291 346q-125 0 -182.5 -61.5t-57.5 -147.5z" />
<glyph unicode=":" horiz-adv-x="573" d="M102 164l185 184l184 -184l-184 -184zM102 778l185 184l184 -184l-184 -184z" />
<glyph unicode=";" horiz-adv-x="573" d="M102 778l185 184l184 -184l-184 -184zM122 164l164 158l205 -179l-295 -583l-53 18l102 422z" />
<glyph unicode="&#x3c;" horiz-adv-x="901" d="M-62 532l861 -307v164l-705 225l705 226v164l-861 -308v-164z" />
<glyph unicode="=" horiz-adv-x="1064" d="M102 327v164h861v-164h-861zM102 737v164h861v-164h-861z" />
<glyph unicode="&#x3e;" horiz-adv-x="1064" d="M102 225v164l705 225l-705 226v164l861 -308v-164z" />
<glyph unicode="?" horiz-adv-x="1077" d="M102 1327q33 27 94.5 59.5t144.5 58t177 25.5q240 0 348.5 -106.5t108.5 -271.5q0 -106 -45 -189.5t-104.5 -142t-102.5 -94.5l-266 -222l-131 131l229 218q59 59 97 122.5t38 133.5q0 152 -203 151l-282 -88zM272 164l185 184l184 -184l-184 -184z" />
<glyph unicode="@" horiz-adv-x="1824" d="M61 610q0 260 113 447.5t315.5 290t468.5 102.5t444.5 -104.5t269.5 -280.5t91 -393q0 -266 -102 -412.5t-272 -146.5q-94 0 -164 45t-99 143q-16 -31 -60 -64.5t-105.5 -56t-135.5 -22.5q-88 0 -157.5 37.5t-109.5 126t-40 233.5v51q0 211 85 304.5t222 93.5 q102 0 167 -38t91 -77l21 125h168v-510q0 -133 35.5 -190.5t103.5 -57.5q47 0 87 37t65.5 124t25.5 234q0 182 -62.5 330.5t-200.5 237t-368 88.5q-215 0 -377.5 -81t-253.5 -236.5t-91 -379.5q0 -225 89 -390t251.5 -254t381.5 -89q109 0 173.5 12.5t99.5 26.5t47 21v-119 q-49 -43 -148 -65.5t-208 -22.5q-264 0 -458 104.5t-298.5 301t-104.5 474.5zM786 537q0 -100 37.5 -150.5t94.5 -50.5q55 0 85.5 35t43 92t12.5 123q0 117 -31 179t-102 62q-139 0 -140 -180v-110z" />
<glyph unicode="A" horiz-adv-x="1447" d="M20 0l119 387v199l131 61l267 801h403l330 -918l157 -290v-240h-280l-123 369h-596l-109 -369h-299zM543 623h389l-176 555h-43z" />
<glyph unicode="B" horiz-adv-x="1431" d="M123 1327l41 123h532q156 0 269.5 -36t177 -115.5t63.5 -213.5q0 -82 -27.5 -154.5t-93.5 -121.5q129 -45 197 -135t68 -240q0 -227 -127 -330.5t-383 -103.5h-676v1122zM451 266h368q109 0 159 49.5t50 137.5q0 84 -54 127t-175 43h-348v-357zM451 866h282 q172 0 172 152q0 76 -34.5 121t-137.5 45h-282v-318z" />
<glyph unicode="C" horiz-adv-x="1368" d="M90 725q0 223 87 390t238.5 261t344.5 94q92 0 177 -16t130 -37l227 -207l-143 -215l-350 181q-115 0 -207 -55.5t-146.5 -157t-54.5 -238.5q0 -158 56.5 -260.5t154.5 -152.5t219 -50q123 0 211 21.5t147.5 49t90.5 48.5v-279q-57 -39 -175 -80.5t-317 -41.5 q-121 0 -242.5 34.5t-223 117.5t-163 227.5t-61.5 365.5z" />
<glyph unicode="D" horiz-adv-x="1460" d="M123 1325l41 125h446q147 0 283.5 -27.5t244 -103.5t170 -217t62.5 -367q0 -225 -63.5 -369.5t-172 -224.5t-244.5 -110.5t-280 -30.5h-446v1120zM455 266h217q213 0 303 126t90 343t-91 333t-302 116h-217v-918z" />
<glyph unicode="E" horiz-adv-x="1263" d="M123 123l41 205v1122h930l102 -61l-115 -226l-204 21h-431v-318h553v-256h-200l-353 21v-365h656l162 -135l-121 -131h-979z" />
<glyph unicode="F" horiz-adv-x="1214" d="M123 1327l41 123h932l102 -61l-94 -226l-184 21h-490l21 -318h550v-256h-165l-385 21v-305l22 -205l-22 -121h-287v1118z" />
<glyph unicode="G" horiz-adv-x="1421" d="M90 725q0 190 59.5 331.5t160 232.5t223 136t249.5 45q88 0 147.5 -10t127.5 -26l278 -183l-123 -233l-409 160q-115 0 -208 -52.5t-146.5 -154t-53.5 -248.5q0 -248 118 -365.5t310 -117.5q92 0 131 10t54 14v262h-260v262h569l22 -122l-45 -109v-491q-23 -8 -76 -29 t-152 -39t-261 -18q-147 0 -277.5 35.5t-228.5 119.5t-153.5 228.5t-55.5 361.5z" />
<glyph unicode="H" horiz-adv-x="1452" d="M123 1325l20 125h287v-598h592v598h287v-770l20 -141v-539h-307v584h-592v-166l21 -418h-308v1120z" />
<glyph unicode="I" d="M123 1327l20 123h287v-1450h-287v1122z" />
<glyph unicode="J" horiz-adv-x="1114" d="M20 143l123 230l297 -131q152 0 216.5 87t64.5 283v510l-43 205l22 123h301l3 -944q0 -154 -59.5 -272.5t-173 -186t-277.5 -67.5q-59 0 -132 6t-116 14z" />
<glyph unicode="K" horiz-adv-x="1411" d="M123 1321l41 129h287v-246l-21 -387h164l330 633h325v-123l-405 -575l344 -426l203 -203v-123h-379l-373 584l-188 -21v-317l20 -123l-20 -123h-287v1114z" />
<glyph unicode="L" horiz-adv-x="1220" d="M123 123l41 205v1122h287v-842l-21 -342h41l449 21l145 20l139 -176l-100 -131h-940z" />
<glyph unicode="M" horiz-adv-x="1800" d="M123 1325l43 123h309l443 -860h40l373 860h326l20 -123l-20 -197v-1128h-289l6 174v735h-22l-70 -170l-238 -534h-245l-328 704h-20v-166l20 -743h-307v1120z" />
<glyph unicode="N" horiz-adv-x="1449" d="M123 1325l41 123h248l495 -721l99 -170h20v891h301v-123l-20 -205v-1120h-236l-600 885h-20v-123l20 -762h-307v1120z" />
<glyph unicode="O" horiz-adv-x="1404" d="M90 725q0 227 51.5 372.5t139.5 227.5t197.5 113.5t223.5 31.5q121 0 230.5 -32.5t195.5 -114.5t136.5 -227.5t50.5 -370.5t-50.5 -370.5t-136.5 -227.5t-195.5 -114.5t-230.5 -32.5q-115 0 -224 31.5t-197 113.5t-139.5 227.5t-51.5 372.5zM397 725q0 -141 22.5 -244.5 t89 -159t193.5 -55.5q129 0 195 54.5t89.5 158t23.5 246.5q0 145 -23.5 247.5t-89.5 157t-195 54.5q-127 0 -193.5 -55.5t-89 -158t-22.5 -245.5z" />
<glyph unicode="P" horiz-adv-x="1226" d="M123 1327l41 123h491q150 0 269.5 -46t190.5 -155.5t71 -302.5t-76 -304.5t-210 -158.5t-306 -47h-143v-106l20 -205l-20 -125h-287v1120zM430 1184l21 -488h200q135 0 184.5 71t49.5 179q0 115 -52.5 176.5t-189.5 61.5h-213z" />
<glyph unicode="Q" horiz-adv-x="1406" d="M82 723q0 227 51 372.5t139 227.5t198 113.5t224 31.5q121 0 230.5 -32.5t195.5 -114.5t136.5 -227.5t50.5 -370.5q0 -176 -41 -290t-107 -185q-35 -39 -95 -79t-108 -58l5 -11l288 -82l219 -104l-143 -229l-48 21q-48 22 -123 54.5t-155.5 67.5t-149.5 64.5t-101 44.5 q-74 31 -147 47t-189 16h-166l-41 258q-57 72 -90 184.5t-33 280.5zM389 723q0 -96 21.5 -193.5t54 -170t65.5 -95.5h162q109 0 177.5 60.5t100 165t31.5 233.5q0 217 -77.5 338t-229.5 121q-150 0 -227.5 -123t-77.5 -336z" />
<glyph unicode="R" horiz-adv-x="1306" d="M123 1327l41 123h491q150 0 269.5 -46t190.5 -155.5t71 -302.5q0 -182 -68.5 -290.5t-189.5 -161.5l59 -54l182 -213l117 -104v-123h-379l-286 436h-170v-106l20 -205l-20 -125h-287v1120zM430 1184l21 -488h200q135 0 184.5 71t49.5 179q0 115 -52.5 176.5t-189.5 61.5 h-213z" />
<glyph unicode="S" horiz-adv-x="1138" d="M74 1040q0 113 50 211.5t157.5 158.5t275.5 60q66 0 130.5 -5t109.5 -13l231 -170l-102 -209l-375 133q-74 0 -122 -35.5t-48 -101.5q0 -82 68.5 -125t193.5 -84q238 -78 334 -187.5t96 -256.5q0 -119 -49 -218.5t-164.5 -158.5t-314.5 -59q-158 0 -268.5 41.5 t-165.5 89.5v282q72 -41 191.5 -86t264.5 -45q94 0 140.5 37t46.5 100q0 57 -37 94t-111 68t-188 72q-164 59 -254 153.5t-90 253.5z" />
<glyph unicode="T" horiz-adv-x="1300" d="M51 1167v283h1198v-283l-461 21v-860l23 -205l-23 -123h-286v1188z" />
<glyph unicode="U" horiz-adv-x="1306" d="M102 588v532l2 207l-2 123h291v-883q0 -143 57.5 -232t202.5 -89t206 83t61 238v883h284v-862q0 -193 -48 -329t-168 -207.5t-335 -71.5q-211 0 -330.5 69.5t-170 205.5t-50.5 333z" />
<glyph unicode="V" horiz-adv-x="1273" d="M29 1327v123h303l289 -1139h41l284 1139h299v-123l-61 -203l-367 -1124h-358l-369 1124z" />
<glyph unicode="W" horiz-adv-x="2183" d="M29 1327v123h305l297 -1098h41l217 1098h414l172 -838l41 -260h40l295 1098h303v-123l-61 -203l-364 -1124h-406l-213 1130h-43l-43 -292l-160 -838h-405l-369 1124z" />
<glyph unicode="X" horiz-adv-x="1323" d="M29 0l370 735l-350 592v123h346l246 -606h41l244 606h368l-374 -721l354 -606v-123h-340l-252 582h-41l-262 -582h-350z" />
<glyph unicode="Y" horiz-adv-x="1280" d="M29 1327v123h344l245 -524h41l244 524h348v-123l-481 -725l12 -207v-395h-288v614z" />
<glyph unicode="Z" horiz-adv-x="1241" d="M41 123l741 1063h-678v264h1010v-242l-637 -944h64l659 41v-305h-1096z" />
<glyph unicode="[" horiz-adv-x="491" d="M62 -287h369v205h-166v1534h166v205h-369v-1944z" />
<glyph unicode="\" horiz-adv-x="851" d="M0 1450l627 -1669h225l-625 1669h-227z" />
<glyph unicode="]" horiz-adv-x="491" d="M61 -82h166v1534h-166v205h369v-1944h-369v205z" />
<glyph unicode="^" horiz-adv-x="864" d="M102 963l275 491h123l262 -491h-123l-201 364l-213 -364h-123z" />
<glyph unicode="_" horiz-adv-x="1064" d="M41 -123h983v-82h-983v82z" />
<glyph unicode="`" horiz-adv-x="471" d="M62 1356v82h170l178 -394h-84z" />
<glyph unicode="a" horiz-adv-x="1120" d="M61 270q0 158 100.5 241t268.5 83q123 0 187.5 -20.5t84.5 -30.5l15 12q0 61 -10.5 108.5t-47 73t-114.5 25.5q-139 0 -249 -22.5t-173 -41.5v226q63 23 192 42t279 19q127 0 208 -33.5t125 -91t61.5 -126t17.5 -136.5v-272l41 -207l-41 -121h-269v100l-20 11 q-16 -20 -56 -51t-107 -54.5t-165 -23.5q-137 0 -232.5 70.5t-95.5 219.5zM369 303q0 -49 35 -72.5t98 -23.5q88 0 138 16.5t77 32.5v39q0 39 -46 78t-151 39q-78 0 -114.5 -31t-36.5 -78z" />
<glyph unicode="b" horiz-adv-x="1130" d="M82 1346l43 122h287v-329l-21 -232l21 -10q41 39 101 75t167 36q182 0 285.5 -117t103.5 -369q0 -188 -52 -304t-140 -167t-197 -51q-98 0 -157.5 17.5t-84.5 34.5l-26 18v-52h-287v1123zM412 244l43 -14q43 -13 94 -13q82 0 128 41t65.5 106.5t19.5 141.5 q0 74 -15.5 136.5t-56.5 100t-121 37.5l-157 -43v-493z" />
<glyph unicode="c" horiz-adv-x="1003" d="M61 483q0 190 64.5 300t174.5 157t243 47q94 0 140 -7t79 -15l160 -181l-123 -161l-215 139q-102 0 -159.5 -72t-57.5 -207q0 -143 61 -210.5t176 -67.5q76 0 136.5 17.5t101.5 39t57 31.5v-234q-51 -27 -148 -53t-249 -26q-125 0 -225.5 48t-158 158.5t-57.5 296.5z" />
<glyph unicode="d" horiz-adv-x="1148" d="M61 463q0 190 61.5 305t157 167t191.5 52q102 0 159.5 -17.5t86.5 -31.5l-21 387l21 123h289v-1120l41 -205l-41 -125h-269v100l-20 11l-31 -32t-90 -64.5t-145 -32.5q-96 0 -185.5 49t-147 155.5t-57.5 278.5zM369 483q0 -113 45 -194.5t149 -81.5l154 29v421 q0 47 -39 75t-115 28q-78 0 -120 -38t-58 -100.5t-16 -138.5z" />
<glyph unicode="e" horiz-adv-x="1005" d="M61 483q0 182 63.5 293t168 161t229.5 50q137 0 216 -30.5t120 -59.5l103 -326l-41 -127h-574q12 -109 77.5 -174t201.5 -65q111 0 179 26.5t95 40.5v-213q-61 -33 -156.5 -56t-220.5 -23q-133 0 -237.5 47t-164 157.5t-59.5 298.5zM344 575l307 41l-30 152q-14 8 -40 12 t-46 4q-92 0 -141.5 -64.5t-49.5 -144.5z" />
<glyph unicode="f" horiz-adv-x="819" d="M41 868l109 99q-10 35 -15.5 93t-5.5 95q0 174 79 283.5t261 109.5q57 0 121.5 -5t111.5 -17l199 -125l-96 -203l-277 123q-70 0 -102.5 -52t-32.5 -130q0 -51 14.5 -103.5t28.5 -68.5h328v-185h-328v-450l21 -207l-21 -125h-286v725z" />
<glyph unicode="g" horiz-adv-x="1107" d="M61 463q0 190 57.5 306t146.5 169t186 53q106 0 174.5 -30.5t91.5 -59.5v68h289l20 -123l-22 -123l2 -721q0 -238 -110.5 -369t-360.5 -131q-51 0 -117 3t-107 8l-229 120l82 203l321 -104q272 0 273 248v81l-21 11q-25 -20 -89 -54t-197 -34q-96 0 -186.5 48t-147 154.5 t-56.5 276.5zM369 485q0 -76 15 -138t58 -100t121 -38q37 0 82 10t72 19v507q-20 6 -57 12.5t-76 6.5q-88 0 -135.5 -38t-63.5 -101.5t-16 -139.5z" />
<glyph unicode="h" horiz-adv-x="1153" d="M74 1327l41 123h286v-332l-20 -227l20 -10q25 37 91.5 72.5t175.5 35.5q184 0 276 -104.5t92 -292.5v-266l43 -201l-43 -125h-286v600q0 78 -54.5 120t-126.5 42l-168 -60v-702h-286v1122z" />
<glyph unicode="i" horiz-adv-x="512" d="M47 1288l219 219l217 -219l-217 -219zM80 842l41 125h287v-967h-285v678z" />
<glyph unicode="j" horiz-adv-x="706" d="M-61 -379l81 182l201 -69q47 0 63 30q15 26 15 67v10q-2 48 -10 100v741l-43 184l41 103h282v-1055q0 -143 -31.5 -234.5t-110.5 -134.5t-224 -43q-37 0 -83 5.5t-83 13.5zM207 1290l219 219l219 -219l-219 -219z" />
<glyph unicode="k" horiz-adv-x="1142" d="M82 1327l43 123h287v-328l-23 -551h125l158 396h334v-123l-228 -332l152 -184l192 -207v-121h-313l-231 379l-166 -21v-358h-287v1122z" />
<glyph unicode="l" horiz-adv-x="520" d="M74 1327l43 123h286v-1450h-286v1122z" />
<glyph unicode="m" horiz-adv-x="1783" d="M82 842l63 125h224v-88l18 -13q23 20 62.5 48t97 50.5t129.5 22.5q213 0 305 -141q35 51 109.5 97t207.5 46q184 0 276.5 -104.5t92.5 -292.5v-262l43 -205l-43 -125h-285v600q0 78 -42 120t-119 42q-80 0 -128.5 -45t-48.5 -119v-8v-590h-286v598q0 78 -34 120t-106 42 l-208 -39v-721h-287v616z" />
<glyph unicode="n" horiz-adv-x="1161" d="M82 842l63 125h224v-88l18 -13q23 20 62.5 48t97 50.5t129.5 22.5q184 0 276 -104.5t92 -292.5v-260l43 -205l-43 -125h-286v598q0 78 -34 120t-106 42l-208 -39v-721h-287v616z" />
<glyph unicode="o" horiz-adv-x="1087" d="M61 483q0 244 117 374t367 130q258 0 369.5 -130t111.5 -374q0 -242 -111.5 -372.5t-369.5 -130.5q-250 0 -367 131t-117 372zM350 483q0 -168 55.5 -233.5t139.5 -65.5t138 65.5t54 233.5t-54 233.5t-138 65.5q-86 0 -140.5 -65.5t-54.5 -233.5z" />
<glyph unicode="p" horiz-adv-x="1128" d="M82 844l63 125h224v-88l20 -11l37 31t101.5 60.5t150.5 29.5q182 0 285.5 -116.5t103.5 -368.5q0 -188 -52 -304t-140.5 -167t-196.5 -51q-106 0 -176 19.5t-92 27.5v-529h-287v1116zM410 227l42 -13q42 -13 93 -13q80 0 127 40t67.5 105.5t20.5 140.5q0 74 -16.5 137.5 t-58.5 101.5t-120 38l-155 -43v-494z" />
<glyph unicode="q" horiz-adv-x="1128" d="M61 463q0 190 57.5 305t146.5 167t186 52q98 0 156.5 -22.5t84.5 -44.5l25 -23v72h289v-1164l41 -188l-41 -119h-310l21 436l20 144l-20 10l-31 -26q-31 -27 -90 -54.5t-145 -27.5q-96 0 -185.5 49t-147 155.5t-57.5 278.5zM369 481q0 -113 44 -193.5t150 -80.5l154 29 v421q0 47 -41 75t-113 28q-78 0 -120 -38t-58 -101.5t-16 -139.5z" />
<glyph unicode="r" horiz-adv-x="872" d="M82 846l43 123h197l40 -47l28 17t79 33.5t125 16.5q41 0 82 -6t63 -16l133 -133l-112 -201l-281 141l-71 -29v-745h-283v641z" />
<glyph unicode="s" horiz-adv-x="894" d="M61 698q0 145 101.5 217t267.5 72q68 0 115 -7t86 -13l186 -103l-80 -198l-307 98q-39 0 -62.5 -15.5t-23.5 -41.5q0 -43 43 -64.5t125 -46.5q166 -49 244 -118.5t78 -205.5q0 -125 -97.5 -208.5t-298.5 -83.5q-131 0 -218 22.5t-140 50.5v242q74 -39 169 -66.5 t183 -27.5q104 0 105 67q0 37 -30 55.5t-82 34t-120 37.5q-117 41 -180.5 104.5t-63.5 198.5z" />
<glyph unicode="t" horiz-adv-x="741" d="M20 776v133l109 101l145 254h160v-297h266v-205h-266v-561l266 2v-162l-32 -15q-33 -16 -95.5 -31t-156.5 -15q-139 0 -202.5 61t-63.5 186v549h-130z" />
<glyph unicode="u" horiz-adv-x="1128" d="M82 377v592h287v-600q0 -84 31.5 -123t107.5 -39q96 0 152.5 73.5t56.5 172.5v516h287v-639l43 -205l-43 -125h-265v100l-20 11q-27 -27 -77 -57.5t-114.5 -52t-138.5 -21.5q-123 0 -189.5 47t-92 136t-25.5 214z" />
<glyph unicode="v" horiz-adv-x="1044" d="M41 967h307l154 -680h41l155 680h306l-41 -267l-275 -700h-348l-258 700z" />
<glyph unicode="w" horiz-adv-x="1843" d="M41 967h307l174 -680h41l176 680h367l174 -680h41l176 680h305l-41 -267l-282 -700h-369l-168 700h-41l-170 -700h-369l-280 700z" />
<glyph unicode="x" horiz-adv-x="1042" d="M41 0l147 326l101 161l-228 355v125h287l154 -402h41l153 402h305l-145 -326l-98 -154l221 -364v-123h-283l-153 360h-41l-154 -360h-307z" />
<glyph unicode="y" horiz-adv-x="1044" d="M-82 -395l82 243l287 -81q59 0 100 35.5t68.5 90t40.5 109.5h-191l-225 700l-39 267h307l154 -738h41l153 738h308l-14 -65q-13 -64 -36.5 -170.5t-55.5 -234.5t-66.5 -258t-71.5 -239q-55 -170 -122 -280.5t-167 -165t-264 -54.5z" />
<glyph unicode="z" horiz-adv-x="997" d="M41 0v123l526 641h-524v205h877v-131l-396 -516l-112 -117h61l483 41v-246h-915z" />
<glyph unicode="{" horiz-adv-x="636" d="M62 596q31 0 65.5 -10.5t58 -45t23.5 -108.5v-452q0 -133 79 -200t208 -67h80v205h-82q-37 0 -59.5 26.5t-22.5 116.5v408q0 92 -28 140t-55 65l-26 18v4l26 20q27 19 55 72.5t28 151.5v369q0 92 23.5 117.5t58.5 25.5h82v205h-80q-129 0 -208 -66.5t-79 -201.5v-422 q0 -78 -23.5 -118t-58.5 -53.5t-65 -13.5v-186z" />
<glyph unicode="|" d="M164 -246v1696h225v-1696h-225z" />
<glyph unicode="}" horiz-adv-x="636" d="M61 -82h82q37 0 59.5 26.5t22.5 116.5v408q0 92 28 140t55 65l26 18v4l-26 20q-27 19 -55 72.5t-28 151.5v369q0 92 -23.5 117.5t-58.5 25.5h-82v205h80q129 0 208 -66.5t79 -201.5v-422q0 -78 23.5 -118t58.5 -53.5t65 -13.5v-186q-31 0 -65.5 -10.5t-58 -45 t-23.5 -108.5v-452q0 -133 -79 -200t-208 -67h-80v205z" />
<glyph unicode="~" horiz-adv-x="862" d="M61 451q0 127 51 217t154 90q55 0 103 -30.5t92 -71.5t87 -72t88 -31l60 185h104q0 -139 -49 -223.5t-158 -84.5q-61 0 -114 31t-98.5 72t-84 71.5t-71.5 30.5l-60 -184h-104z" />
<glyph unicode="&#xa1;" horiz-adv-x="573" d="M102 942l185 184l184 -184l-184 -184zM123 -121l145 772h41l140 -774l-164 -164z" />
<glyph unicode="&#xa2;" horiz-adv-x="1105" d="M61 483q0 190 63.5 300t172.5 157t244 47h18v98h184v-110q106 -12 173 -38t108 -50l-82 -203q-25 14 -80 32.5t-119 33.5v-537q86 14 158 41t100 39v-234q-23 -18 -90 -37.5t-168 -31.5v-113h-184v103h-18q-135 0 -244 47t-172.5 157.5t-63.5 298.5zM326 483 q0 -68 18 -125t68.5 -96t146.5 -51v547q-96 -10 -146.5 -51t-68.5 -101t-18 -123z" />
<glyph unicode="&#xa3;" horiz-adv-x="1445" d="M82 651v185l184 -9v136h4q16 242 142.5 374.5t351.5 132.5q104 0 162.5 -16t103.5 -37l187 -166l-123 -194l-330 160q-102 0 -158.5 -68t-56.5 -199v-131l303 17l2 -185l-305 17v-402h530l146 49l139 -184l-100 -131h-1080l-20 123l102 205v331z" />
<glyph unicode="&#xa4;" horiz-adv-x="1103" d="M102 395l117 99q-86 88 -86 237q0 154 88 246l-119 98l109 109l111 -133l-11 -11q98 49 240 50q143 0 242 -50l-11 11l111 133l108 -109l-120 -100q90 -92 90 -244q0 -150 -86 -237l116 -99l-108 -108l-111 133l9 8q-96 -45 -240 -45q-141 0 -238 45l9 -8l-111 -133z M369 731q0 -106 44 -147t138 -41q96 0 139 41t43 147q0 117 -44 159t-138 42t-138 -45t-44 -156z" />
<glyph unicode="&#xa5;" horiz-adv-x="1474" d="M82 508v184l467 -14l-72 108l-395 -12v184l289 -8l-246 377v123h344l240 -512h26h27l237 512h349v-123l-250 -377l293 8l2 -184l-404 12l-74 -108l476 14l2 -184l-523 16l9 -129v-395h-289v524z" />
<glyph unicode="&#xa6;" d="M164 -164v676h225v-676h-225zM164 774v676h225v-676h-225z" />
<glyph unicode="&#xa7;" horiz-adv-x="901" d="M102 686q0 80 30 132t72 79t75 33v6q-76 39 -114 103.5t-38 129.5q0 139 86 220t229 81q59 0 109.5 -5t89.5 -11l127 -98l-86 -160l-240 98q-51 0 -80.5 -29.5t-29.5 -70.5q0 -70 45 -121t168 -123q102 -57 157.5 -116.5t76 -127t20.5 -153.5t-33 -158.5t-74 -101.5 q23 -41 43.5 -78t20.5 -119q0 -68 -33 -134t-105.5 -111.5t-197.5 -45.5q-147 0 -219 25l-72 25l64 196q55 -27 107 -49t122 -22q55 0 91 30.5t36 81.5q0 66 -28.5 121t-125.5 113q-102 63 -166.5 114.5t-95.5 108.5t-31 137zM305 702q0 -61 36 -103t105 -89 q59 -39 93 -61.5t65 -40.5q6 16 10 37.5t4 41.5q0 90 -23.5 144.5t-74.5 93.5q-90 72 -152.5 58.5t-62.5 -81.5z" />
<glyph unicode="&#xa8;" horiz-adv-x="962" d="M82 1239l185 184l184 -184l-184 -184zM512 1239l185 184l184 -184l-184 -184z" />
<glyph unicode="&#xa9;" horiz-adv-x="1671" d="M102 702q0 203 87 368t251 263.5t396 98.5q231 0 395 -98.5t251 -263.5t87 -368q0 -205 -87 -368.5t-251 -258.5t-395 -95t-395.5 95t-251.5 259t-87 368zM252 702q0 -172 69.5 -307t200 -212t314.5 -77q188 0 318 77t197.5 212t67.5 307t-67.5 308.5t-197.5 215.5 t-318 79q-184 0 -314.5 -79t-200 -215.5t-69.5 -308.5zM510 727q0 139 47 220t127 115t178 34q70 0 103.5 -5.5t58.5 -11.5l117 -131l-90 -119l-158 103q-76 0 -118 -53.5t-42 -151.5q0 -205 174 -205q84 0 141.5 26.5t75.5 39.5v-172q-37 -20 -108 -39t-182 -19 q-92 0 -166 35t-116 116t-42 218z" />
<glyph unicode="&#xaa;" horiz-adv-x="636" d="M61 1118q0 80 51.5 121t133.5 41q61 0 94 -10t43 -15l6 7q0 47 -13.5 74.5t-72.5 27.5q-70 0 -124 -10.5t-87 -20.5v113q33 10 97.5 20.5t138.5 10.5q86 0 130 -30t60.5 -74t16.5 -91v-135l20 -105l-20 -59h-136v49l-10 6q-12 -16 -51 -40.5t-113 -24.5q-68 0 -116 34.5 t-48 110.5zM215 1135q0 -48 68 -48q43 0 68.5 8.5t37.5 16.5v18q0 20 -22.5 40t-75.5 20q-76 0 -76 -55z" />
<glyph unicode="&#xab;" horiz-adv-x="942" d="M82 614l266 -348h205l-266 348l266 349h-205zM389 614l266 -348h205l-266 348l266 349h-205z" />
<glyph unicode="&#xac;" horiz-adv-x="1241" d="M102 573v205h1037v-368h-207v163h-830z" />
<glyph unicode="&#xad;" horiz-adv-x="778" d="M102 410v204h656v-204h-656z" />
<glyph unicode="&#xae;" horiz-adv-x="776" d="M61 1151q0 90 39 164t112 118t175 44q104 0 177 -44t112 -118t39 -164q0 -135 -86 -227.5t-242 -92.5q-154 0 -240 92.5t-86 227.5zM129 1151q0 -115 67.5 -189.5t190.5 -74.5q125 0 192.5 74.5t67.5 189.5t-67.5 191.5t-192.5 76.5q-123 0 -190.5 -76.5t-67.5 -191.5z M276 1282l9 27h108q47 0 81 -23.5t34 -85.5q0 -41 -15.5 -64.5t-39.5 -33.5l12 -12l39 -48l26 -22v-27h-84l-61 94h-37v-22l4 -45l-4 -27h-63v244zM344 1251l4 -106h43q31 0 41 15.5t10 39.5q0 25 -11 38t-42 13h-45z" />
<glyph unicode="&#xaf;" horiz-adv-x="819" d="M61 1167v123h697v-123h-697z" />
<glyph unicode="&#xb0;" horiz-adv-x="696" d="M61 1208q0 80 39 144.5t104.5 103.5t143.5 39q80 0 144.5 -39t103.5 -103.5t39 -144.5q0 -78 -39 -143.5t-103.5 -104t-144.5 -38.5q-78 0 -143.5 38.5t-104.5 104t-39 143.5zM164 1208q0 -76 54 -130t130 -54t130 54.5t54 129.5q0 76 -54 130.5t-130 54.5t-130 -54.5 t-54 -130.5z" />
<glyph unicode="&#xb1;" horiz-adv-x="1064" d="M102 40v164h861v-164h-861zM102 532v164h349v348h163v-348h349v-164h-349v-348h-163v348h-349z" />
<glyph unicode="&#xb2;" horiz-adv-x="675" d="M72 911v93l40 32q40 31 94 77t95 85q66 61 99.5 110.5t33.5 108.5q0 41 -24.5 63.5t-83.5 22.5q-63 0 -128 -18.5t-106 -40.5v143q16 8 78.5 33t167.5 25q129 0 192.5 -56.5t63.5 -158.5q0 -84 -45 -152t-109.5 -121t-126.5 -92l6 -21l275 21v-154h-522z" />
<glyph unicode="&#xb3;" horiz-adv-x="696" d="M82 956l41 144l194 -56q72 0 103 28t31 73q0 33 -19.5 52.5t-62.5 19.5h-129v133h104q96 0 96 86q0 68 -94 67q-88 0 -146.5 -22.5t-86.5 -34.5v143q31 18 86 38t147 20q117 0 176.5 -51.5t59.5 -143.5q0 -53 -17.5 -88t-42.5 -53q43 -29 67.5 -68t24.5 -96 q0 -117 -75.5 -181.5t-200.5 -64.5q-63 0 -117 8z" />
<glyph unicode="&#xb4;" horiz-adv-x="466" d="M62 1044l176 394h168v-82l-262 -312h-82z" />
<glyph unicode="&#xb5;" horiz-adv-x="1216" d="M82 -244v1213h287v-600q0 -84 31.5 -123t107.5 -39q96 0 152.5 73.5t56.5 172.5v516h287v-639l43 -205l-43 -125h-265v100l-20 11q-27 -27 -77 -57.5t-114.5 -52t-138.5 -21.5q-109 0 -176 38q29 -80 49.5 -148.5t20.5 -135.5q0 -63 -20.5 -93t-82.5 -30q-55 0 -76.5 40 t-21.5 105z" />
<glyph unicode="&#xb6;" horiz-adv-x="1075" d="M102 1196v16q0 102 34 152.5t105.5 68t180.5 17.5h551v-1612h-225v1428h-183v-1428h-225v1127q-104 0 -171 57t-67 174z" />
<glyph unicode="&#xb7;" horiz-adv-x="573" d="M102 676l185 184l184 -184l-184 -184z" />
<glyph unicode="&#xb8;" d="M41 -276l30 -12q29 -13 78 -26.5t109 -13.5q41 0 70.5 28t29.5 58l-194 99l61 143h121l-21 -86l207 -119q-8 -125 -83.5 -185.5t-194.5 -60.5q-100 0 -157 26l-56 26v123z" />
<glyph unicode="&#xb9;" horiz-adv-x="372" d="M62 1464v112l270 61l10 -61l-10 -103v-561h-148v552h-122z" />
<glyph unicode="&#xba;" horiz-adv-x="606" d="M61 1225q0 121 58.5 186.5t183.5 65.5q129 0 185.5 -65.5t56.5 -186.5t-56.5 -186.5t-185.5 -65.5q-125 0 -183.5 65.5t-58.5 186.5zM207 1225q0 -82 27.5 -116t68.5 -34t68.5 34t27.5 116q0 84 -26.5 116.5t-69.5 32.5t-69.5 -32.5t-26.5 -116.5z" />
<glyph unicode="&#xbb;" horiz-adv-x="983" d="M82 266l266 348l-266 349h205l266 -349l-266 -348h-205zM430 266l266 348l-266 349h205l266 -349l-266 -348h-205z" />
<glyph unicode="&#xbc;" horiz-adv-x="1652" d="M62 1136v112l270 61l10 -61l-10 -103v-561h-148v552h-122zM86 -164l992 1614h151l-991 -1614h-152zM962 102v105l334 518h205l21 -61l-21 -103v-323h133v-125l-133 -11v-102h-147v102h-392zM1151 238h203v305h-19z" />
<glyph unicode="&#xbd;" horiz-adv-x="1542" d="M62 1136v112l270 61l10 -61l-10 -103v-561h-148v552h-122zM86 -164l992 1614h151l-991 -1614h-152zM979 0v92l40 32t94 77t95 86q66 61 99.5 110t33.5 109q0 41 -25.5 63.5t-82.5 22.5q-66 0 -130.5 -19.5t-103.5 -40.5v144q16 6 79 31.5t167 25.5q129 0 192.5 -56 t63.5 -159q0 -84 -45 -152.5t-110.5 -120.5t-124.5 -91l6 -21l274 21v-154h-522z" />
<glyph unicode="&#xbe;" horiz-adv-x="1894" d="M41 639l41 143l194 -56q73 0 103.5 28t30.5 74q0 32 -19 51.5t-63 19.5h-130v132h104q98 0 98 87q0 68 -96 68q-58 0 -103 -11t-77.5 -25t-51.5 -22v143q29 19 85.5 38t147.5 19q115 0 175 -50.5t60 -143.5q0 -52 -16.5 -86.5t-41.5 -55.5q44 -27 67 -65.5t23 -98.5 q0 -78 -34 -132.5t-96 -83t-145 -28.5q-33 0 -62 2t-55 6zM327 -164l992 1614h151l-991 -1614h-152zM1204 102v105l334 518h205l21 -61l-21 -103v-323h133v-125l-133 -11v-102h-147v102h-392zM1393 238h203v305h-19z" />
<glyph unicode="&#xbf;" horiz-adv-x="1077" d="M102 53q0 102 45.5 212t149.5 214q47 47 107.5 99.5t113.5 97.5t76 65l121 -151l-31 -29t-67.5 -63.5t-57.5 -55.5q-78 -82 -132 -154.5t-54 -160.5q0 -59 45 -93t131 -34q111 0 190.5 33t112.5 55l123 -190q-33 -33 -91.5 -71t-151.5 -65.5t-234 -27.5q-205 0 -300.5 93 t-95.5 226zM406 1030l184 184l184 -184l-184 -184z" />
<glyph unicode="&#xc0;" horiz-adv-x="1447" d="M20 0l119 387v199l131 61l267 801h403l330 -918l157 -290v-240h-280l-123 369h-596l-109 -369h-299zM473 1848v82h170l178 -394h-84zM543 623h389l-176 555h-43z" />
<glyph unicode="&#xc1;" horiz-adv-x="1447" d="M20 0l119 387v199l131 61l267 801h403l330 -918l157 -290v-240h-280l-123 369h-596l-109 -369h-299zM543 623h389l-176 555h-43zM605 1529l176 394h168v-82l-262 -312h-82z" />
<glyph unicode="&#xc2;" horiz-adv-x="1447" d="M20 0l119 387v199l131 61l267 801h403l330 -918l157 -290v-240h-280l-123 369h-596l-109 -369h-299zM377 1577l266 287h123l262 -287h-123l-200 160l-205 -160h-123zM543 623h389l-176 555h-43z" />
<glyph unicode="&#xc3;" horiz-adv-x="1447" d="M20 0l119 387v199l131 61l267 801h403l330 -918l157 -290v-240h-280l-123 369h-596l-109 -369h-299zM346 1577q0 127 51 217t154 90q55 0 103 -30.5t92 -71.5t87 -72t88 -31l60 185h104q0 -139 -49 -223.5t-158 -84.5q-61 0 -114 31t-98.5 72t-84 71.5t-71.5 30.5 l-60 -184h-104zM543 623h389l-176 555h-43z" />
<glyph unicode="&#xc4;" horiz-adv-x="1447" d="M20 0l119 387v199l131 61l267 801h403l330 -918l157 -290v-240h-280l-123 369h-596l-109 -369h-299zM313 1731l185 184l184 -184l-184 -184zM543 623h389l-176 555h-43zM743 1731l185 184l184 -184l-184 -184z" />
<glyph unicode="&#xc5;" horiz-adv-x="1447" d="M20 0l119 387v199l131 61l267 801h403l330 -918l157 -290v-240h-280l-123 369h-596l-109 -369h-299zM512 1782q0 84 60.5 144.5t144.5 60.5t144 -60.5t60 -144.5t-60 -144.5t-144 -60.5t-144.5 60.5t-60.5 144.5zM543 623h389l-176 555h-43zM635 1782q0 -33 24.5 -57.5 t57.5 -24.5q35 0 58.5 24.5t23.5 57.5q0 35 -24 58.5t-58 23.5q-33 0 -57.5 -23.5t-24.5 -58.5z" />
<glyph unicode="&#xc6;" horiz-adv-x="2062" d="M20 0l119 387l-20 219l151 41l267 842l213 -41h192v2h930l102 -61l-114 -226l-205 21h-430v-318h553v-256h-201l-352 21v-365h655l162 -135l-121 -131h-979l-41 123l41 205v41h-514l-109 -369h-299zM551 643l391 -33v590h-229z" />
<glyph unicode="&#xc7;" horiz-adv-x="1368" d="M90 725q0 223 87 390t238.5 261t344.5 94q92 0 177 -16t130 -37l227 -207l-143 -215l-350 181q-115 0 -207 -55.5t-146.5 -157t-54.5 -238.5q0 -158 56.5 -260.5t154.5 -152.5t219 -50q123 0 211 21.5t147.5 49t90.5 48.5v-279q-57 -39 -175 -80.5t-317 -41.5 q-121 0 -242.5 34.5t-223 117.5t-163 227.5t-61.5 365.5zM521 -276l30 -12q29 -13 78 -26.5t109 -13.5q41 0 70.5 28t29.5 58l-194 99l61 143h121l-21 -86l207 -119q-8 -125 -83.5 -185.5t-194.5 -60.5q-100 0 -157 26l-56 26v123z" />
<glyph unicode="&#xc8;" horiz-adv-x="1263" d="M123 123l41 205v1122h930l102 -61l-115 -226l-204 21h-431v-318h553v-256h-200l-353 21v-365h656l162 -135l-121 -131h-979zM463 1852v82h170l178 -394h-84z" />
<glyph unicode="&#xc9;" horiz-adv-x="1263" d="M123 123l41 205v1122h930l102 -61l-115 -226l-204 21h-431v-318h553v-256h-200l-353 21v-365h656l162 -135l-121 -131h-979zM594 1533l176 394h168v-82l-262 -312h-82z" />
<glyph unicode="&#xca;" horiz-adv-x="1263" d="M123 123l41 205v1122h930l102 -61l-115 -226l-204 21h-431v-318h553v-256h-200l-353 21v-365h656l162 -135l-121 -131h-979zM367 1581l266 287h123l262 -287h-123l-200 160l-205 -160h-123z" />
<glyph unicode="&#xcb;" horiz-adv-x="1263" d="M123 123l41 205v1122h930l102 -61l-115 -226l-204 21h-431v-318h553v-256h-200l-353 21v-365h656l162 -135l-121 -131h-979zM303 1735l185 184l184 -184l-184 -184zM733 1735l185 184l184 -184l-184 -184z" />
<glyph unicode="&#xcc;" d="M37 1852v82h170l178 -394h-84zM123 1327l20 123h287v-1450h-287v1122z" />
<glyph unicode="&#xcd;" d="M123 1327l20 123h287v-1450h-287v1122zM168 1533l176 394h168v-82l-262 -312h-82z" />
<glyph unicode="&#xce;" d="M-59 1581l266 287h123l262 -287h-123l-200 160l-205 -160h-123zM123 1327l20 123h287v-1450h-287v1122z" />
<glyph unicode="&#xcf;" d="M-123 1735l185 184l184 -184l-184 -184zM123 1327l20 123h287v-1450h-287v1122zM307 1735l185 184l184 -184l-184 -184z" />
<glyph unicode="&#xd0;" horiz-adv-x="1460" d="M-6 676l2 123h676v-123h-678zM123 1325l41 125h446q147 0 283.5 -27.5t244 -103.5t170 -217t62.5 -367q0 -225 -63.5 -369.5t-172 -224.5t-244.5 -110.5t-280 -30.5h-446v1120zM455 266h217q213 0 303 126t90 343t-91 333t-302 116h-217v-918z" />
<glyph unicode="&#xd1;" horiz-adv-x="1449" d="M123 1325l41 123h248l495 -721l99 -170h20v891h301v-123l-20 -205v-1120h-236l-600 885h-20v-123l20 -762h-307v1120zM399 1581q0 127 51 217t154 90q55 0 103 -30.5t92 -71.5t87 -72t88 -31l60 185h104q0 -139 -49 -223.5t-158 -84.5q-61 0 -114 31t-98.5 72t-84 71.5 t-71.5 30.5l-60 -184h-104z" />
<glyph unicode="&#xd2;" horiz-adv-x="1404" d="M90 725q0 227 51.5 372.5t139.5 227.5t197.5 113.5t223.5 31.5q121 0 230.5 -32.5t195.5 -114.5t136.5 -227.5t50.5 -370.5t-50.5 -370.5t-136.5 -227.5t-195.5 -114.5t-230.5 -32.5q-115 0 -224 31.5t-197 113.5t-139.5 227.5t-51.5 372.5zM397 725q0 -141 22.5 -244.5 t89 -159t193.5 -55.5q129 0 195 54.5t89.5 158t23.5 246.5q0 145 -23.5 247.5t-89.5 157t-195 54.5q-127 0 -193.5 -55.5t-89 -158t-22.5 -245.5zM459 1893v82h170l178 -394h-84z" />
<glyph unicode="&#xd3;" horiz-adv-x="1404" d="M90 725q0 227 51.5 372.5t139.5 227.5t197.5 113.5t223.5 31.5q121 0 230.5 -32.5t195.5 -114.5t136.5 -227.5t50.5 -370.5t-50.5 -370.5t-136.5 -227.5t-195.5 -114.5t-230.5 -32.5q-115 0 -224 31.5t-197 113.5t-139.5 227.5t-51.5 372.5zM397 725q0 -141 22.5 -244.5 t89 -159t193.5 -55.5q129 0 195 54.5t89.5 158t23.5 246.5q0 145 -23.5 247.5t-89.5 157t-195 54.5q-127 0 -193.5 -55.5t-89 -158t-22.5 -245.5zM590 1574l176 394h168v-82l-262 -312h-82z" />
<glyph unicode="&#xd4;" horiz-adv-x="1404" d="M90 725q0 227 51.5 372.5t139.5 227.5t197.5 113.5t223.5 31.5q121 0 230.5 -32.5t195.5 -114.5t136.5 -227.5t50.5 -370.5t-50.5 -370.5t-136.5 -227.5t-195.5 -114.5t-230.5 -32.5q-115 0 -224 31.5t-197 113.5t-139.5 227.5t-51.5 372.5zM363 1622l266 287h123 l262 -287h-123l-200 160l-205 -160h-123zM397 725q0 -141 22.5 -244.5t89 -159t193.5 -55.5q129 0 195 54.5t89.5 158t23.5 246.5q0 145 -23.5 247.5t-89.5 157t-195 54.5q-127 0 -193.5 -55.5t-89 -158t-22.5 -245.5z" />
<glyph unicode="&#xd5;" horiz-adv-x="1404" d="M90 725q0 227 51.5 372.5t139.5 227.5t197.5 113.5t223.5 31.5q121 0 230.5 -32.5t195.5 -114.5t136.5 -227.5t50.5 -370.5t-50.5 -370.5t-136.5 -227.5t-195.5 -114.5t-230.5 -32.5q-115 0 -224 31.5t-197 113.5t-139.5 227.5t-51.5 372.5zM332 1622q0 127 51 217 t154 90q55 0 103 -30.5t92 -71.5t87 -72t88 -31l60 185h104q0 -139 -49 -223.5t-158 -84.5q-61 0 -114 31t-98.5 72t-84 71.5t-71.5 30.5l-60 -184h-104zM397 725q0 -141 22.5 -244.5t89 -159t193.5 -55.5q129 0 195 54.5t89.5 158t23.5 246.5q0 145 -23.5 247.5t-89.5 157 t-195 54.5q-127 0 -193.5 -55.5t-89 -158t-22.5 -245.5z" />
<glyph unicode="&#xd6;" horiz-adv-x="1404" d="M90 725q0 227 51.5 372.5t139.5 227.5t197.5 113.5t223.5 31.5q121 0 230.5 -32.5t195.5 -114.5t136.5 -227.5t50.5 -370.5t-50.5 -370.5t-136.5 -227.5t-195.5 -114.5t-230.5 -32.5q-115 0 -224 31.5t-197 113.5t-139.5 227.5t-51.5 372.5zM299 1776l185 184l184 -184 l-184 -184zM397 725q0 -141 22.5 -244.5t89 -159t193.5 -55.5q129 0 195 54.5t89.5 158t23.5 246.5q0 145 -23.5 247.5t-89.5 157t-195 54.5q-127 0 -193.5 -55.5t-89 -158t-22.5 -245.5zM729 1776l185 184l184 -184l-184 -184z" />
<glyph unicode="&#xd7;" horiz-adv-x="991" d="M102 322l277 276l-275 276l115 115l277 -274l276 276l115 -117l-277 -276l279 -276l-117 -117l-276 278l-277 -276z" />
<glyph unicode="&#xd8;" horiz-adv-x="1404" d="M90 725q0 227 51.5 372.5t139.5 227.5t197.5 113.5t223.5 31.5q121 0 230.5 -32.5t195.5 -114.5t136.5 -227.5t50.5 -370.5t-50.5 -370.5t-136.5 -227.5t-195.5 -114.5t-230.5 -32.5q-115 0 -224 31.5t-197 113.5t-139.5 227.5t-51.5 372.5zM143 -63l991 1613h150 l-991 -1613h-150zM397 725q0 -141 22.5 -244.5t89 -159t193.5 -55.5q129 0 195 54.5t89.5 158t23.5 246.5q0 145 -23.5 247.5t-89.5 157t-195 54.5q-127 0 -193.5 -55.5t-89 -158t-22.5 -245.5z" />
<glyph unicode="&#xd9;" horiz-adv-x="1306" d="M102 588v532l2 207l-2 123h291v-883q0 -143 57.5 -232t202.5 -89t206 83t61 238v883h284v-862q0 -193 -48 -329t-168 -207.5t-335 -71.5q-211 0 -330.5 69.5t-170 205.5t-50.5 333zM430 1852v82h170l178 -394h-84z" />
<glyph unicode="&#xda;" horiz-adv-x="1306" d="M102 588v532l2 207l-2 123h291v-883q0 -143 57.5 -232t202.5 -89t206 83t61 238v883h284v-862q0 -193 -48 -329t-168 -207.5t-335 -71.5q-211 0 -330.5 69.5t-170 205.5t-50.5 333zM562 1533l176 394h168v-82l-262 -312h-82z" />
<glyph unicode="&#xdb;" horiz-adv-x="1306" d="M102 588v532l2 207l-2 123h291v-883q0 -143 57.5 -232t202.5 -89t206 83t61 238v883h284v-862q0 -193 -48 -329t-168 -207.5t-335 -71.5q-211 0 -330.5 69.5t-170 205.5t-50.5 333zM334 1581l266 287h123l262 -287h-123l-200 160l-205 -160h-123z" />
<glyph unicode="&#xdc;" horiz-adv-x="1306" d="M102 588v532l2 207l-2 123h291v-883q0 -143 57.5 -232t202.5 -89t206 83t61 238v883h284v-862q0 -193 -48 -329t-168 -207.5t-335 -71.5q-211 0 -330.5 69.5t-170 205.5t-50.5 333zM270 1735l185 184l184 -184l-184 -184zM700 1735l185 184l184 -184l-184 -184z" />
<glyph unicode="&#xdd;" horiz-adv-x="1280" d="M29 1327v123h344l245 -524h41l244 524h348v-123l-481 -725l12 -207v-395h-288v614zM535 1529l176 394h168v-82l-262 -312h-82z" />
<glyph unicode="&#xde;" horiz-adv-x="1308" d="M123 0v1450h287v-205h266q150 0 269.5 -46t190 -155.5t70.5 -302.5t-75.5 -304t-210 -158.5t-306.5 -47.5h-204v-231h-287zM410 492h221q113 0 171 31.5t80.5 89t22.5 128.5q0 76 -23.5 129.5t-85 81t-173.5 27.5h-213v-487z" />
<glyph unicode="&#xdf;" horiz-adv-x="1353" d="M82 700v267h137v12q0 240 125 365.5t330 125.5q125 0 202.5 -38.5t113.5 -104t36 -143.5q0 -76 -14.5 -128t-31.5 -91t-31.5 -76t-14.5 -84q0 -49 30.5 -86t102.5 -80q117 -70 171 -151.5t54 -184.5q0 -80 -32.5 -153.5t-105.5 -121.5t-189 -48q-59 0 -108.5 6t-90.5 14 l-170 84l82 205l229 -101q41 0 67.5 32t26.5 73q0 55 -23.5 90t-64.5 64.5t-96 64.5q-76 49 -110.5 103.5t-34.5 119.5q0 82 26.5 154t52 135t25.5 121q0 53 -25.5 87t-93.5 34q-92 0 -141 -70t-49 -190v-1006h-248v700h-137z" />
<glyph unicode="&#xe0;" horiz-adv-x="1120" d="M61 270q0 158 100.5 241t268.5 83q123 0 187.5 -20.5t84.5 -30.5l15 12q0 61 -10.5 108.5t-47 73t-114.5 25.5q-139 0 -249 -22.5t-173 -41.5v226q63 23 192 42t279 19q127 0 208 -33.5t125 -91t61.5 -126t17.5 -136.5v-272l41 -207l-41 -121h-269v100l-20 11 q-16 -20 -56 -51t-107 -54.5t-165 -23.5q-137 0 -232.5 70.5t-95.5 219.5zM307 1356v82h170l178 -394h-84zM369 303q0 -49 35 -72.5t98 -23.5q88 0 138 16.5t77 32.5v39q0 39 -46 78t-151 39q-78 0 -114.5 -31t-36.5 -78z" />
<glyph unicode="&#xe1;" horiz-adv-x="1120" d="M61 270q0 158 100.5 241t268.5 83q123 0 187.5 -20.5t84.5 -30.5l15 12q0 61 -10.5 108.5t-47 73t-114.5 25.5q-139 0 -249 -22.5t-173 -41.5v226q63 23 192 42t279 19q127 0 208 -33.5t125 -91t61.5 -126t17.5 -136.5v-272l41 -207l-41 -121h-269v100l-20 11 q-16 -20 -56 -51t-107 -54.5t-165 -23.5q-137 0 -232.5 70.5t-95.5 219.5zM369 303q0 -49 35 -72.5t98 -23.5q88 0 138 16.5t77 32.5v39q0 39 -46 78t-151 39q-78 0 -114.5 -31t-36.5 -78zM439 1038l176 394h168v-82l-262 -312h-82z" />
<glyph unicode="&#xe2;" horiz-adv-x="1120" d="M61 270q0 158 100.5 241t268.5 83q123 0 187.5 -20.5t84.5 -30.5l15 12q0 61 -10.5 108.5t-47 73t-114.5 25.5q-139 0 -249 -22.5t-173 -41.5v226q63 23 192 42t279 19q127 0 208 -33.5t125 -91t61.5 -126t17.5 -136.5v-272l41 -207l-41 -121h-269v100l-20 11 q-16 -20 -56 -51t-107 -54.5t-165 -23.5q-137 0 -232.5 70.5t-95.5 219.5zM211 1086l266 287h123l262 -287h-123l-200 160l-205 -160h-123zM369 303q0 -49 35 -72.5t98 -23.5q88 0 138 16.5t77 32.5v39q0 39 -46 78t-151 39q-78 0 -114.5 -31t-36.5 -78z" />
<glyph unicode="&#xe3;" horiz-adv-x="1120" d="M61 270q0 158 100.5 241t268.5 83q123 0 187.5 -20.5t84.5 -30.5l15 12q0 61 -10.5 108.5t-47 73t-114.5 25.5q-139 0 -249 -22.5t-173 -41.5v226q63 23 192 42t279 19q127 0 208 -33.5t125 -91t61.5 -126t17.5 -136.5v-272l41 -207l-41 -121h-269v100l-20 11 q-16 -20 -56 -51t-107 -54.5t-165 -23.5q-137 0 -232.5 70.5t-95.5 219.5zM180 1086q0 127 51 217t154 90q55 0 103 -30.5t92 -71.5t87 -72t88 -31l60 185h104q0 -139 -49 -223.5t-158 -84.5q-61 0 -114 31t-98.5 72t-84 71.5t-71.5 30.5l-60 -184h-104zM369 303 q0 -49 35 -72.5t98 -23.5q88 0 138 16.5t77 32.5v39q0 39 -46 78t-151 39q-78 0 -114.5 -31t-36.5 -78z" />
<glyph unicode="&#xe4;" horiz-adv-x="1120" d="M61 270q0 158 100.5 241t268.5 83q123 0 187.5 -20.5t84.5 -30.5l15 12q0 61 -10.5 108.5t-47 73t-114.5 25.5q-139 0 -249 -22.5t-173 -41.5v226q63 23 192 42t279 19q127 0 208 -33.5t125 -91t61.5 -126t17.5 -136.5v-272l41 -207l-41 -121h-269v100l-20 11 q-16 -20 -56 -51t-107 -54.5t-165 -23.5q-137 0 -232.5 70.5t-95.5 219.5zM147 1239l185 184l184 -184l-184 -184zM369 303q0 -49 35 -72.5t98 -23.5q88 0 138 16.5t77 32.5v39q0 39 -46 78t-151 39q-78 0 -114.5 -31t-36.5 -78zM577 1239l185 184l184 -184l-184 -184z" />
<glyph unicode="&#xe5;" horiz-adv-x="1120" d="M61 270q0 158 100.5 241t268.5 83q123 0 187.5 -20.5t84.5 -30.5l15 12q0 61 -10.5 108.5t-47 73t-114.5 25.5q-139 0 -249 -22.5t-173 -41.5v226q63 23 192 42t279 19q127 0 208 -33.5t125 -91t61.5 -126t17.5 -136.5v-272l41 -207l-41 -121h-269v100l-20 11 q-16 -20 -56 -51t-107 -54.5t-165 -23.5q-137 0 -232.5 70.5t-95.5 219.5zM346 1290q0 84 60.5 144.5t144.5 60.5t144 -60.5t60 -144.5t-60 -144.5t-144 -60.5t-144.5 60.5t-60.5 144.5zM369 303q0 -49 35 -72.5t98 -23.5q88 0 138 16.5t77 32.5v39q0 39 -46 78t-151 39 q-78 0 -114.5 -31t-36.5 -78zM469 1290q0 -33 24.5 -57.5t57.5 -24.5q35 0 58.5 24.5t23.5 57.5q0 35 -24 58.5t-58 23.5q-33 0 -57.5 -23.5t-24.5 -58.5z" />
<glyph unicode="&#xe6;" horiz-adv-x="1697" d="M61 270q0 102 51.5 170t136.5 100.5t181 32.5q106 0 170 -23.5t102 -47.5l15 12q0 61 -10.5 118.5t-47 93.5t-114.5 36q-113 0 -222.5 -20.5t-199.5 -43.5v226q63 23 170.5 42t279.5 19q102 0 175 -26.5t124 -71.5q61 53 139.5 76.5t166.5 23.5q137 0 216 -30.5 t119 -59.5l103 -326l-41 -127h-571v-12q14 -104 79.5 -165.5t196.5 -61.5q111 0 179.5 26.5t94.5 40.5v-213q-61 -33 -156 -56t-220 -23q-106 0 -195.5 29.5t-153.5 96.5q-76 -53 -175 -89.5t-244 -36.5q-90 0 -170 29.5t-129.5 94t-49.5 166.5zM369 293q0 -49 32.5 -78 t100.5 -29q88 0 138 16.5t77 33.5v38q0 55 -52.5 96.5t-144.5 41.5q-78 0 -114.5 -32t-36.5 -87zM1004 614q0 -18 2 -39l301 41l-31 152q-14 8 -40 12t-46 4q-80 0 -128 -51t-58 -119z" />
<glyph unicode="&#xe7;" horiz-adv-x="1003" d="M61 483q0 190 64.5 300t174.5 157t243 47q94 0 140 -7t79 -15l160 -181l-123 -161l-215 139q-102 0 -159.5 -72t-57.5 -207q0 -143 61 -210.5t176 -67.5q76 0 136.5 17.5t101.5 39t57 31.5v-234q-51 -27 -148 -53t-249 -26q-125 0 -225.5 48t-158 158.5t-57.5 296.5z M355 -276l30 -12q29 -13 78 -26.5t109 -13.5q41 0 70.5 28t29.5 58l-194 99l61 143h121l-21 -86l207 -119q-8 -125 -83.5 -185.5t-194.5 -60.5q-100 0 -157 26l-56 26v123z" />
<glyph unicode="&#xe8;" horiz-adv-x="1005" d="M61 483q0 182 63.5 293t168 161t229.5 50q137 0 216 -30.5t120 -59.5l103 -326l-41 -127h-574q12 -109 77.5 -174t201.5 -65q111 0 179 26.5t95 40.5v-213q-61 -33 -156.5 -56t-220.5 -23q-133 0 -237.5 47t-164 157.5t-59.5 298.5zM281 1381v82h170l178 -394h-84z M344 575l307 41l-30 152q-14 8 -40 12t-46 4q-92 0 -141.5 -64.5t-49.5 -144.5z" />
<glyph unicode="&#xe9;" horiz-adv-x="1005" d="M61 483q0 182 63.5 293t168 161t229.5 50q137 0 216 -30.5t120 -59.5l103 -326l-41 -127h-574q12 -109 77.5 -174t201.5 -65q111 0 179 26.5t95 40.5v-213q-61 -33 -156.5 -56t-220.5 -23q-133 0 -237.5 47t-164 157.5t-59.5 298.5zM344 575l307 41l-30 152q-14 8 -40 12 t-46 4q-92 0 -141.5 -64.5t-49.5 -144.5zM412 1062l176 394h168v-82l-262 -312h-82z" />
<glyph unicode="&#xea;" horiz-adv-x="1005" d="M61 483q0 182 63.5 293t168 161t229.5 50q137 0 216 -30.5t120 -59.5l103 -326l-41 -127h-574q12 -109 77.5 -174t201.5 -65q111 0 179 26.5t95 40.5v-213q-61 -33 -156.5 -56t-220.5 -23q-133 0 -237.5 47t-164 157.5t-59.5 298.5zM184 1110l266 287h123l262 -287h-123 l-200 160l-205 -160h-123zM344 575l307 41l-30 152q-14 8 -40 12t-46 4q-92 0 -141.5 -64.5t-49.5 -144.5z" />
<glyph unicode="&#xeb;" horiz-adv-x="1005" d="M61 483q0 182 63.5 293t168 161t229.5 50q137 0 216 -30.5t120 -59.5l103 -326l-41 -127h-574q12 -109 77.5 -174t201.5 -65q111 0 179 26.5t95 40.5v-213q-61 -33 -156.5 -56t-220.5 -23q-133 0 -237.5 47t-164 157.5t-59.5 298.5zM121 1264l185 184l184 -184l-184 -184 zM344 575l307 41l-30 152q-14 8 -40 12t-46 4q-92 0 -141.5 -64.5t-49.5 -144.5zM551 1264l185 184l184 -184l-184 -184z" />
<glyph unicode="&#xec;" horiz-adv-x="471" d="M15 1356v82h170l178 -394h-84zM82 842l41 125h287v-967h-285v678z" />
<glyph unicode="&#xed;" horiz-adv-x="471" d="M82 842l41 125h287v-967h-285v678zM146 1038l176 394h168v-82l-262 -312h-82z" />
<glyph unicode="&#xee;" horiz-adv-x="471" d="M-82 1086l266 287h123l262 -287h-123l-200 160l-205 -160h-123zM82 842l41 125h287v-967h-285v678z" />
<glyph unicode="&#xef;" horiz-adv-x="471" d="M-146 1239l185 184l184 -184l-184 -184zM82 842l41 125h287v-967h-285v678zM284 1239l185 184l184 -184l-184 -184z" />
<glyph unicode="&#xf0;" horiz-adv-x="1118" d="M61 1343v166q37 12 78 20.5t103.5 13.5t160.5 5q104 0 192.5 -28.5t158.5 -79.5l96 96l113 -111l-99 -98q152 -209 152 -561q0 -375 -127 -580.5t-371 -205.5q-209 0 -312.5 126.5t-103.5 350.5q0 219 101.5 347t271.5 128q84 0 141.5 -19.5t89 -42t39.5 -36.5 q0 88 -17 163.5t-54 139.5l-111 -113l-112 111l116 116q-61 45 -149 68.5t-203 23.5h-154zM373 416q0 -119 46.5 -184.5t112.5 -65.5q55 0 99.5 46t69 126t24.5 178q0 86 -44 148.5t-128 62.5q-100 0 -140 -84t-40 -227z" />
<glyph unicode="&#xf1;" horiz-adv-x="1161" d="M82 842l63 125h224v-88l18 -13q23 20 62.5 48t97 50.5t129.5 22.5q184 0 276 -104.5t92 -292.5v-260l43 -205l-43 -125h-286v598q0 78 -34 120t-106 42l-208 -39v-721h-287v616zM229 1086q0 127 51 217t154 90q55 0 103 -30.5t92 -71.5t87 -72t88 -31l60 185h104 q0 -139 -49 -223.5t-158 -84.5q-61 0 -114 31t-98.5 72t-84 71.5t-71.5 30.5l-60 -184h-104z" />
<glyph unicode="&#xf2;" horiz-adv-x="1087" d="M61 483q0 244 117 374t367 130q258 0 369.5 -130t111.5 -374q0 -242 -111.5 -372.5t-369.5 -130.5q-250 0 -367 131t-117 372zM303 1376v82h170l178 -394h-84zM350 483q0 -168 55.5 -233.5t139.5 -65.5t138 65.5t54 233.5t-54 233.5t-138 65.5q-86 0 -140.5 -65.5 t-54.5 -233.5z" />
<glyph unicode="&#xf3;" horiz-adv-x="1087" d="M61 483q0 244 117 374t367 130q258 0 369.5 -130t111.5 -374q0 -242 -111.5 -372.5t-369.5 -130.5q-250 0 -367 131t-117 372zM350 483q0 -168 55.5 -233.5t139.5 -65.5t138 65.5t54 233.5t-54 233.5t-138 65.5q-86 0 -140.5 -65.5t-54.5 -233.5zM435 1058l176 394h168 v-82l-262 -312h-82z" />
<glyph unicode="&#xf4;" horiz-adv-x="1087" d="M61 483q0 244 117 374t367 130q258 0 369.5 -130t111.5 -374q0 -242 -111.5 -372.5t-369.5 -130.5q-250 0 -367 131t-117 372zM207 1106l266 287h123l262 -287h-123l-200 160l-205 -160h-123zM350 483q0 -168 55.5 -233.5t139.5 -65.5t138 65.5t54 233.5t-54 233.5 t-138 65.5q-86 0 -140.5 -65.5t-54.5 -233.5z" />
<glyph unicode="&#xf5;" horiz-adv-x="1087" d="M61 483q0 244 117 374t367 130q258 0 369.5 -130t111.5 -374q0 -242 -111.5 -372.5t-369.5 -130.5q-250 0 -367 131t-117 372zM176 1106q0 127 51 217t154 90q55 0 103 -30.5t92 -71.5t87 -72t88 -31l60 185h104q0 -139 -49 -223.5t-158 -84.5q-61 0 -114 31t-98.5 72 t-84 71.5t-71.5 30.5l-60 -184h-104zM350 483q0 -168 55.5 -233.5t139.5 -65.5t138 65.5t54 233.5t-54 233.5t-138 65.5q-86 0 -140.5 -65.5t-54.5 -233.5z" />
<glyph unicode="&#xf6;" horiz-adv-x="1087" d="M61 483q0 244 117 374t367 130q258 0 369.5 -130t111.5 -374q0 -242 -111.5 -372.5t-369.5 -130.5q-250 0 -367 131t-117 372zM143 1259l185 184l184 -184l-184 -184zM350 483q0 -168 55.5 -233.5t139.5 -65.5t138 65.5t54 233.5t-54 233.5t-138 65.5q-86 0 -140.5 -65.5 t-54.5 -233.5zM573 1259l185 184l184 -184l-184 -184z" />
<glyph unicode="&#xf7;" horiz-adv-x="1101" d="M102 532v164h861v-164h-861zM395 277l153 152l152 -152l-152 -153zM395 947l153 152l152 -152l-152 -153z" />
<glyph unicode="&#xf8;" horiz-adv-x="1087" d="M61 483q0 244 117 374t367 130q258 0 369.5 -130t111.5 -374q0 -242 -111.5 -372.5t-369.5 -130.5q-250 0 -367 131t-117 372zM213 299l291 224l332 256l61 -82l-313 -242l-310 -242zM350 483q0 -168 55.5 -233.5t139.5 -65.5t138 65.5t54 233.5t-54 233.5t-138 65.5 q-86 0 -140.5 -65.5t-54.5 -233.5z" />
<glyph unicode="&#xf9;" horiz-adv-x="1128" d="M82 377v592h287v-600q0 -84 31.5 -123t107.5 -39q96 0 152.5 73.5t56.5 172.5v516h287v-639l43 -205l-43 -125h-265v100l-20 11q-27 -27 -77 -57.5t-114.5 -52t-138.5 -21.5q-123 0 -189.5 47t-92 136t-25.5 214zM338 1356v82h170l178 -394h-84z" />
<glyph unicode="&#xfa;" horiz-adv-x="1128" d="M82 377v592h287v-600q0 -84 31.5 -123t107.5 -39q96 0 152.5 73.5t56.5 172.5v516h287v-639l43 -205l-43 -125h-265v100l-20 11q-27 -27 -77 -57.5t-114.5 -52t-138.5 -21.5q-123 0 -189.5 47t-92 136t-25.5 214zM469 1038l176 394h168v-82l-262 -312h-82z" />
<glyph unicode="&#xfb;" horiz-adv-x="1128" d="M82 377v592h287v-600q0 -84 31.5 -123t107.5 -39q96 0 152.5 73.5t56.5 172.5v516h287v-639l43 -205l-43 -125h-265v100l-20 11q-27 -27 -77 -57.5t-114.5 -52t-138.5 -21.5q-123 0 -189.5 47t-92 136t-25.5 214zM242 1086l266 287h123l262 -287h-123l-200 160l-205 -160 h-123z" />
<glyph unicode="&#xfc;" horiz-adv-x="1128" d="M82 377v592h287v-600q0 -84 31.5 -123t107.5 -39q96 0 152.5 73.5t56.5 172.5v516h287v-639l43 -205l-43 -125h-265v100l-20 11q-27 -27 -77 -57.5t-114.5 -52t-138.5 -21.5q-123 0 -189.5 47t-92 136t-25.5 214zM178 1239l185 184l184 -184l-184 -184zM608 1239l185 184 l184 -184l-184 -184z" />
<glyph unicode="&#xfd;" horiz-adv-x="1044" d="M-82 -395l82 243l287 -81q59 0 100 35.5t68.5 90t40.5 109.5h-191l-225 700l-39 267h307l154 -738h41l153 738h308l-14 -65q-13 -64 -36.5 -170.5t-55.5 -234.5t-66.5 -258t-71.5 -239q-55 -170 -122 -280.5t-167 -165t-264 -54.5zM410 1048l176 394h168v-82l-262 -312 h-82z" />
<glyph unicode="&#xfe;" horiz-adv-x="1128" d="M82 1321l63 125h224v-567l20 -11l37 31t101.5 60.5t150.5 29.5q182 0 285.5 -116.5t103.5 -368.5q0 -188 -52 -304t-140.5 -167t-196.5 -51q-147 0 -208 24l-60 23v-529h-287v1596zM410 225l42 -13q42 -13 93 -13q80 0 127 40t67.5 105.5t20.5 140.5q0 74 -16.5 137.5 t-58.5 101.5t-120 38l-155 -43v-494z" />
<glyph unicode="&#xff;" horiz-adv-x="1044" d="M-82 -395l82 243l287 -81q59 0 100 35.5t68.5 90t40.5 109.5h-191l-225 700l-39 267h307l154 -738h41l153 738h308l-14 -65q-13 -64 -36.5 -170.5t-55.5 -234.5t-66.5 -258t-71.5 -239q-55 -170 -122 -280.5t-167 -165t-264 -54.5zM119 1249l185 184l184 -184l-184 -184z M549 1249l185 184l184 -184l-184 -184z" />
<glyph unicode="&#x131;" horiz-adv-x="471" d="M82 842l41 125h287v-967h-285v678z" />
<glyph unicode="&#x152;" horiz-adv-x="2144" d="M102 725q0 227 51.5 372.5t139.5 227.5t197.5 113.5t224.5 31.5q182 0 309 -110v90h930l102 -61l-114 -226l-205 21h-430v-318h553v-256h-201l-352 21v-365h655l162 -135l-121 -131h-979l-23 68q-120 -88 -286 -88q-115 0 -224.5 31.5t-197.5 113.5t-139.5 227.5 t-51.5 372.5zM410 725q0 -141 22.5 -244.5t89 -159t193.5 -55.5t193.5 54.5t90 158t23.5 246.5q0 145 -23.5 247.5t-90 157t-193.5 54.5t-193.5 -55.5t-89 -158t-22.5 -245.5z" />
<glyph unicode="&#x153;" horiz-adv-x="1718" d="M61 483q0 244 117 374t367 130q258 0 369.5 -130t111.5 -374q0 -242 -111.5 -372.5t-369.5 -130.5q-250 0 -367 131t-117 372zM350 483q0 -168 55.5 -233.5t139.5 -65.5t138 65.5t54 233.5t-54 233.5t-138 65.5q-86 0 -140.5 -65.5t-54.5 -233.5zM737 483q0 182 63.5 293 t168 161t229.5 50q137 0 216 -30.5t120 -59.5l103 -326l-41 -127h-574q12 -109 77.5 -174t201.5 -65q111 0 179 26.5t95 40.5v-213q-61 -33 -156.5 -56t-220.5 -23q-133 0 -237.5 47t-164 157.5t-59.5 298.5zM1020 575l307 41l-30 152q-14 8 -40 12t-46 4 q-92 0 -141.5 -64.5t-49.5 -144.5z" />
<glyph unicode="&#x178;" horiz-adv-x="1280" d="M29 1327v123h344l245 -524h41l244 524h348v-123l-481 -725l12 -207v-395h-288v614zM244 1731l185 184l184 -184l-184 -184zM674 1731l185 184l184 -184l-184 -184z" />
<glyph unicode="&#x237;" horiz-adv-x="630" d="M-61 -379l81 182l201 -69q47 0 63.5 29.5t14.5 77.5t-10 100v741l-43 184l41 103h282v-1055q0 -143 -31.5 -234.5t-110.5 -134.5t-224 -43q-37 0 -83 5.5t-83 13.5z" />
<glyph unicode="&#x2c6;" horiz-adv-x="698" d="M21 1106l266 287h123l262 -287h-123l-200 160l-205 -160h-123z" />
<glyph unicode="&#x2dc;" horiz-adv-x="862" d="M61 1106q0 127 51 217t154 90q55 0 103 -30.5t92 -71.5t87 -72t88 -31l60 185h104q0 -139 -49 -223.5t-158 -84.5q-61 0 -114 31t-98.5 72t-84 71.5t-71.5 30.5l-60 -184h-104z" />
<glyph unicode="&#x2000;" horiz-adv-x="993" />
<glyph unicode="&#x2001;" horiz-adv-x="1987" />
<glyph unicode="&#x2002;" horiz-adv-x="993" />
<glyph unicode="&#x2003;" horiz-adv-x="1987" />
<glyph unicode="&#x2004;" horiz-adv-x="662" />
<glyph unicode="&#x2005;" horiz-adv-x="496" />
<glyph unicode="&#x2006;" horiz-adv-x="331" />
<glyph unicode="&#x2007;" horiz-adv-x="331" />
<glyph unicode="&#x2008;" horiz-adv-x="248" />
<glyph unicode="&#x2009;" horiz-adv-x="397" />
<glyph unicode="&#x200a;" horiz-adv-x="110" />
<glyph unicode="&#x2010;" horiz-adv-x="860" d="M102 410v204h656v-204h-656z" />
<glyph unicode="&#x2011;" horiz-adv-x="860" d="M102 410v204h656v-204h-656z" />
<glyph unicode="&#x2012;" horiz-adv-x="860" d="M102 410v204h656v-204h-656z" />
<glyph unicode="&#x2013;" horiz-adv-x="1146" d="M61 410v204h1024v-204h-1024z" />
<glyph unicode="&#x2014;" horiz-adv-x="1761" d="M61 410v204h1639v-204h-1639z" />
<glyph unicode="&#x2018;" horiz-adv-x="518" d="M62 1270q0 92 45 170t111.5 134t134.5 85l30 -31q-100 -102 -128.5 -194.5t-18.5 -143.5l57 21l144 -164l-185 -164q-78 33 -134 96.5t-56 190.5z" />
<glyph unicode="&#x2019;" horiz-adv-x="518" d="M61 1454l185 164q78 -33 134 -96.5t56 -190.5q0 -92 -45 -170t-111.5 -134t-134.5 -85l-30 31q100 102 128.5 194.5t18.5 143.5l-57 -21z" />
<glyph unicode="&#x201a;" horiz-adv-x="518" d="M61 143l185 164q78 -33 134 -96.5t56 -190.5q0 -92 -45 -170t-111.5 -134t-134.5 -85l-30 31q100 102 128.5 194.5t18.5 143.5l-57 -21z" />
<glyph unicode="&#x201c;" horiz-adv-x="927" d="M62 1270q0 92 45 170t111.5 134t134.5 85l30 -31q-100 -102 -128.5 -194.5t-18.5 -143.5l57 21l144 -164l-185 -164q-78 33 -134 96.5t-56 190.5zM471 1270q0 92 45 170t111.5 134t134.5 85l30 -31q-100 -102 -128.5 -194.5t-18.5 -143.5l57 21l144 -164l-185 -164 q-78 33 -134 96.5t-56 190.5z" />
<glyph unicode="&#x201d;" horiz-adv-x="927" d="M61 1454l185 164q78 -33 134 -96.5t56 -190.5q0 -92 -45 -170t-111.5 -134t-134.5 -85l-30 31q100 102 128.5 194.5t18.5 143.5l-57 -21zM471 1454l185 164q78 -33 134 -96.5t56 -190.5q0 -92 -45 -170t-111.5 -134t-134.5 -85l-30 31q100 102 128.5 194.5t18.5 143.5 l-57 -21z" />
<glyph unicode="&#x201e;" horiz-adv-x="927" d="M61 143l185 164q78 -33 134 -96.5t56 -190.5q0 -92 -45 -170t-111.5 -134t-134.5 -85l-30 31q100 102 128.5 194.5t18.5 143.5l-57 -21zM471 143l185 164q78 -33 134 -96.5t56 -190.5q0 -92 -45 -170t-111.5 -134t-134.5 -85l-30 31q100 102 128.5 194.5t18.5 143.5 l-57 -21z" />
<glyph unicode="&#x2022;" horiz-adv-x="716" d="M81 672l277 276l276 -276l-276 -276z" />
<glyph unicode="&#x2026;" horiz-adv-x="1392" d="M102 164l185 184l184 -184l-184 -184zM512 164l185 184l184 -184l-184 -184zM921 164l185 184l184 -184l-184 -184z" />
<glyph unicode="&#x202f;" horiz-adv-x="397" />
<glyph unicode="&#x2039;" horiz-adv-x="634" d="M82 614l266 -348h205l-266 348l266 349h-205z" />
<glyph unicode="&#x203a;" horiz-adv-x="634" d="M82 266l266 348l-266 349h205l266 -349l-266 -348h-205z" />
<glyph unicode="&#x2044;" horiz-adv-x="569" d="M-287 -164l992 1614h151l-991 -1614h-152z" />
<glyph unicode="&#x205f;" horiz-adv-x="496" />
<glyph unicode="&#x2074;" horiz-adv-x="712" d="M20 1004v104l334 518h205l21 -61l-21 -103v-323h133v-125l-133 -10v-103h-147v103h-392zM209 1139h203v305h-19z" />
<glyph unicode="&#x20ac;" horiz-adv-x="1452" d="M82 508v184l164 -6v39v55l-164 -6v184l182 -8q37 195 131 308.5t234.5 162.5t310.5 49q141 0 225 -16t131 -38.5t74 -41.5v-256q-27 23 -124 50.5t-224 27.5q-215 0 -323.5 -62.5t-143.5 -193.5l25 -2l444 20l2 -184l-446 21l-48 -2q-2 -31 -2 -68v-51l50 -2l444 20 l2 -184l-446 20l-29 -2q35 -135 143.5 -199.5t329.5 -64.5q119 0 180.5 6t96 15.5t69.5 17.5v-260q-35 -12 -81 -26.5t-131 -24.5t-238 -10q-172 0 -309.5 50t-227.5 167.5t-123 318.5z" />
<glyph unicode="&#x2116;" horiz-adv-x="2289" d="M123 1325l41 123h248l495 -721l99 -170h20v891h301v-123l-20 -205v-1120h-236l-600 885h-20v-123l20 -762h-307v1120zM1470 0v123h697v-123h-697zM1497 649q0 164 78 250t244 86q172 0 246.5 -86t74.5 -250q0 -162 -74.5 -249t-246.5 -87q-166 0 -244 87t-78 249z M1690 649q0 -111 37 -154.5t92 -43.5t92 44t37 154q0 113 -36 157t-93 44t-93 -44t-36 -157z" />
<glyph unicode="&#x2122;" horiz-adv-x="1040" d="M20 1311v86h363v-86l-139 6v-260l6 -62l-6 -37h-86v359zM446 1360l15 37h92l135 -260h12l113 260h98l7 -37l-7 -60v-342h-88l2 54v221h-6l-22 -51l-72 -162h-74l-98 213h-6v-49l6 -226h-94v338z" />
<glyph unicode="&#x25fc;" horiz-adv-x="962" d="M0 0v963h963v-963h-963z" />
<glyph unicode="&#xfb01;" horiz-adv-x="1300" />
<glyph unicode="&#xfb02;" horiz-adv-x="1298" />
<glyph unicode="&#xfb03;" horiz-adv-x="2007" d="M41 868l109 99q-10 35 -15.5 93t-5.5 95q0 174 79 283.5t261 109.5q57 0 121.5 -5t111.5 -17l342 -269l-75 -141l-441 205q-70 0 -102.5 -52t-32.5 -130q0 -51 14.5 -103.5t28.5 -68.5h533v-185h-533v-450l21 -207l-21 -125h-286v725z" />
<glyph unicode="&#xfb04;" horiz-adv-x="2045" d="M41 868l109 99q-10 35 -15.5 93t-5.5 95q0 174 79 283.5t261 109.5q57 0 121.5 -5t111.5 -17l342 -269l-75 -141l-441 205q-70 0 -102.5 -52t-32.5 -130q0 -51 14.5 -103.5t28.5 -68.5h533v-185h-533v-450l21 -207l-21 -125h-286v725z" />
<glyph horiz-adv-x="651" d="M41 202q0 66 27.5 106t73.5 61q-29 25 -49.5 62.5t-20.5 92.5q0 88 62 144.5t192 56.5q132 0 192 -52t60 -149q0 -50 -20 -90t-50 -63q43 -21 72.5 -63t29.5 -106q0 -86 -39 -134t-103 -68t-140 -20q-56 0 -107.5 11t-92 36t-64 68t-23.5 107zM200 226q0 -56 36.5 -79.5 t91.5 -23.5q56 0 93.5 18.5t37.5 56.5q0 53 -52.5 85.5t-158.5 32.5q-20 -15 -34 -39t-14 -51zM224 502q0 -32 16 -51t40 -27t48 -8q50 0 75 20.5t25 55.5q0 42 -23 66t-77 24q-46 0 -75 -20.5t-29 -59.5z" />
<glyph horiz-adv-x="651" d="M41 796q0 66 27.5 106t73.5 61q-29 25 -49.5 62.5t-20.5 92.5q0 88 62 144.5t192 56.5q132 0 192 -52t60 -149q0 -50 -20 -90t-50 -63q43 -21 72.5 -63t29.5 -106q0 -86 -39 -134t-103 -68t-140 -20q-56 0 -107.5 11t-92 36t-64 68t-23.5 107zM200 820q0 -56 36.5 -79.5 t91.5 -23.5q56 0 93.5 18.5t37.5 56.5q0 53 -52.5 85.5t-158.5 32.5q-20 -15 -34 -39t-14 -51zM224 1096q0 -32 16 -51t40 -27t48 -8q50 0 75 20.5t25 55.5q0 42 -23 66t-77 24q-46 0 -75 -20.5t-29 -59.5z" />
<glyph horiz-adv-x="620" d="M41 45l41 143l181 -57q71 0 108 26.5t37 74.5q0 46 -25 74t-99 28h-212v391h456v-143l-256 11h-44v-139h69q143 0 207 -54.5t64 -161.5q0 -72 -32 -128.5t-93.5 -88t-148.5 -31.5q-39 0 -67.5 2t-56.5 6z" />
<glyph horiz-adv-x="620" d="M41 639l41 143l181 -57q71 0 108 26.5t37 74.5q0 46 -25 74t-99 28h-212v391h456v-143l-256 11h-44v-139h69q143 0 207 -54.5t64 -161.5q0 -72 -32 -128.5t-93.5 -88t-148.5 -31.5q-39 0 -67.5 2t-56.5 6z" />
<glyph horiz-adv-x="710" d="M20 102v105l334 518h205l21 -61l-21 -103v-323h133v-125l-133 -11v-102h-147v102h-392zM209 238h203v305h-19z" />
<glyph horiz-adv-x="692" d="M10 676v104l333 518h205l20 -62l-20 -103v-323h133v-124l-133 -10v-103h-148v103h-390zM198 810h202v306h-18z" />
<glyph horiz-adv-x="471" d="M69 1301l185 184l184 -184l-184 -184zM82 842l41 125h287v-967h-285v678z" />
<glyph horiz-adv-x="663" d="M41 492q0 58 30.5 112t90.5 87.5t152 33.5q90 0 159 -36.5t109 -118.5t40 -218q0 -118 -41 -201.5t-114 -127t-171 -43.5q-41 0 -65.5 3.5t-46.5 7.5l-124 75l60 120l164 -64q42 0 81 19t64 58.5t30 99.5l-168 -31q-73 0 -129 21t-88.5 69.5t-32.5 133.5zM194 476 q0 -42 23.5 -61t73.5 -19q46 0 94 3t74 8q-6 173 -145 173q-63 0 -91.5 -31t-28.5 -73z" />
<glyph horiz-adv-x="663" d="M41 1084q0 58 30.5 112t90.5 87.5t152 33.5q90 0 159 -36.5t109 -118.5t40 -218q0 -118 -41 -201.5t-114 -127t-171 -43.5q-41 0 -65.5 3.5t-46.5 7.5l-124 75l60 120l164 -64q42 0 81 19t64 58.5t30 99.5l-168 -31q-73 0 -129 21t-88.5 69.5t-32.5 133.5zM194 1068 q0 -42 23.5 -61t73.5 -19q46 0 94 3t74 8q-6 173 -145 173q-63 0 -91.5 -31t-28.5 -73z" />
<glyph horiz-adv-x="372" d="M30 552v112l271 61l11 -61l-11 -103v-561h-147v552h-124z" />
<glyph horiz-adv-x="372" d="M62 1136v112l270 61l10 -61l-10 -103v-561h-148v552h-122z" />
<glyph horiz-adv-x="573" d="M102 676l185 184l184 -184l-184 -184z" />
<glyph horiz-adv-x="557" d="M30 572v153h496v-103l-168 -458l-52 -164h-173l191 486l55 107h-31z" />
<glyph horiz-adv-x="557" d="M30 1146v152h496v-104l-168 -457l-52 -164h-173l191 485l55 108h-31z" />
<glyph horiz-adv-x="663" d="M41 341q0 103 29.5 178t77.5 122.5t108 70.5t122 23q52 0 81 -8t52 -19l93 -84l-72 -116l-154 85q-45 0 -85 -22.5t-65.5 -64.5t-29.5 -102l162 40q72 0 131 -23t95 -71.5t36 -127.5q0 -106 -71.5 -169t-200.5 -63q-85 0 -155.5 38t-112 116t-41.5 197zM212 280 q2 -34 18 -67.5t48 -56t82 -22.5t79.5 25t29.5 69t-32.5 67t-85.5 23q-44 0 -82.5 -12.5t-56.5 -25.5z" />
<glyph horiz-adv-x="663" d="M41 933q0 103 29.5 178t77.5 122.5t108 70.5t122 23q52 0 81 -8t52 -19l93 -84l-72 -116l-154 85q-45 0 -85 -22.5t-65.5 -64.5t-29.5 -102l162 40q72 0 131 -23t95 -71.5t36 -127.5q0 -106 -71.5 -169t-200.5 -63q-85 0 -155.5 38t-112 116t-41.5 197zM212 872 q2 -34 18 -67.5t48 -56t82 -22.5t79.5 25t29.5 69t-32.5 67t-85.5 23q-44 0 -82.5 -12.5t-56.5 -25.5z" />
<glyph horiz-adv-x="614" d="M41 45l41 143l194 -56q73 0 103.5 28t30.5 74q0 32 -19 51.5t-63 19.5h-130v132h104q98 0 98 87q0 68 -96 68q-58 0 -103 -11t-77.5 -25t-51.5 -22v143q29 19 85.5 38t147.5 19q115 0 175 -50.5t60 -143.5q0 -52 -16.5 -86.5t-41.5 -55.5q44 -27 67 -65.5t23 -98.5 q0 -78 -34 -132.5t-96 -83t-145 -28.5q-33 0 -62 2t-55 6z" />
<glyph horiz-adv-x="614" d="M41 639l41 143l194 -56q73 0 103.5 28t30.5 74q0 32 -19 51.5t-63 19.5h-130v132h104q98 0 98 87q0 68 -96 68q-58 0 -103 -11t-77.5 -25t-51.5 -22v143q29 19 85.5 38t147.5 19q115 0 175 -50.5t60 -143.5q0 -52 -16.5 -86.5t-41.5 -55.5q44 -27 67 -65.5t23 -98.5 q0 -78 -34 -132.5t-96 -83t-145 -28.5q-33 0 -62 2t-55 6z" />
<glyph horiz-adv-x="600" d="M37 0v92l40 32t94 77t95 86q66 61 99.5 110t33.5 109q0 41 -25.5 63.5t-82.5 22.5q-66 0 -130.5 -19.5t-103.5 -40.5v144q16 6 79 31.5t167 25.5q129 0 192.5 -56t63.5 -159q0 -84 -45 -152.5t-110.5 -120.5t-124.5 -91l6 -21l274 21v-154h-522z" />
<glyph horiz-adv-x="600" d="M36 584v112l24 16q23 16 59.5 41t76.5 56t70 61q66 62 99 111t33 109q0 40 -25 63t-82 23q-43 0 -87 -9t-82 -23t-64 -28v143q10 5 41 19t82 26t121 12q130 0 193 -56t63 -158q0 -64 -26 -118t-68.5 -99t-91 -82t-94.5 -65l6 -21l274 21v-154h-522z" />
<glyph horiz-adv-x="651" d="M41 362q0 132 34.5 214t98.5 120.5t152 38.5t151 -38.5t98 -120.5t35 -214q0 -136 -35 -218t-98 -118t-151 -36t-152 36t-98.5 117t-34.5 219zM194 362q0 -122 31.5 -173.5t100.5 -51.5q70 0 101 50.5t31 174.5q0 117 -31 171.5t-101 54.5q-69 0 -100.5 -55t-31.5 -171z " />
<glyph horiz-adv-x="651" d="M72 946q0 132 35 214t99 120.5t150 38.5q88 0 152 -38.5t99 -120.5t35 -214q0 -136 -35 -218t-99 -118t-152 -36q-86 0 -150 36t-99 117t-35 219zM224 946q0 -122 32 -173.5t100 -51.5q71 0 101.5 50.5t30.5 174.5q0 117 -30 171.5t-102 54.5q-68 0 -100 -55t-32 -171z " />
<glyph horiz-adv-x="1302" d="M82 725q0 264 69.5 428t197.5 240.5t302 76.5q176 0 303 -77.5t197 -241.5t70 -426q0 -272 -70 -436t-197 -236.5t-303 -72.5q-174 0 -302 71.5t-197.5 234.5t-69.5 439zM300 481l309 273l354 312l65 -100l-334 -295l-330 -295zM387 725q0 -246 63.5 -348.5t200.5 -102.5 q141 0 202.5 101.5t61.5 349.5q0 233 -61 342t-203 109q-137 0 -200.5 -110t-63.5 -341z" />
</font>
</defs>
</svg>
