<?xml version="1.0" encoding="UTF-8" standalone="no"?>
<svg
   xmlns:dc="http://purl.org/dc/elements/1.1/"
   xmlns:cc="http://creativecommons.org/ns#"
   xmlns:rdf="http://www.w3.org/1999/02/22-rdf-syntax-ns#"
   xmlns:svg="http://www.w3.org/2000/svg"
   xmlns="http://www.w3.org/2000/svg"
   xmlns:sodipodi="http://sodipodi.sourceforge.net/DTD/sodipodi-0.dtd"
   xmlns:inkscape="http://www.inkscape.org/namespaces/inkscape"
   width="1000"
   height="1000"
   viewBox="0 0 1000 1000"
   id="svg2"
   version="1.1"
   inkscape:version="0.91 r13725"
   sodipodi:docname="login.svg"
   style="fill:none">
  <metadata
     id="metadata10">
    <rdf:RDF>
      <cc:Work
         rdf:about="">
        <dc:format>image/svg+xml</dc:format>
        <dc:type
           rdf:resource="http://purl.org/dc/dcmitype/StillImage" />
        <dc:title></dc:title>
      </cc:Work>
    </rdf:RDF>
  </metadata>
  <defs
     id="defs8" />
  <sodipodi:namedview
     pagecolor="#ffffff"
     bordercolor="#666666"
     borderopacity="1"
     objecttolerance="10"
     gridtolerance="10"
     guidetolerance="10"
     inkscape:pageopacity="0"
     inkscape:pageshadow="2"
     inkscape:window-width="1920"
     inkscape:window-height="1017"
     id="namedview6"
     showgrid="false"
     inkscape:zoom="0.70710678"
     inkscape:cx="380.75889"
     inkscape:cy="537.36707"
     inkscape:window-x="-8"
     inkscape:window-y="-8"
     inkscape:window-maximized="1"
     inkscape:current-layer="svg2" />
  <path
     d="m 486.97357,987.5 c 0,0 -3.32031,0 0,0 l -26.56065,0 c -89.63728,0 -185.91519,0 -278.87222,-24.36983 C 81.943411,935.71303 28.824752,890.01723 25.504833,819.9516 22.184926,786.44328 35.464577,752.93326 58.704014,725.51611 95.222987,679.82204 148.34166,652.4049 194.82046,631.08065 c 16.59952,-9.13847 33.19847,-15.23136 49.79817,-24.37155 19.92003,-12.18406 66.39883,-42.6485 69.71914,-82.2497 0,-18.27866 -6.64063,-39.60292 -26.56065,-63.97274 l -19.91814,-27.41715 c -13.2794,-18.27866 -26.56065,-36.5556 -39.84005,-57.87985 -39.83835,-76.15852 -33.19847,-170.59399 13.2794,-240.65997 6.64062,-9.139 13.28125,-18.27798 23.24033,-27.41697 59.75818,-60.926309 142.7567,-94.435922 232.39398,-94.435922 89.63728,-3.046324 175.95612,33.509613 239.03275,91.389652 9.96094,9.13899 19.92002,21.32424 26.56065,30.46324 46.4788,70.06598 49.79911,164.50145 9.95907,240.65997 -13.27939,21.32425 -26.55878,39.60119 -39.83817,57.87985 l -19.92001,27.41715 c -16.59971,24.36982 -26.55878,45.69408 -26.55878,63.97274 3.32031,39.6012 49.79911,70.06564 69.71726,82.2497 16.5997,9.14019 33.1994,18.27866 49.79911,24.37155 46.4788,21.32425 99.59822,45.69409 136.11608,94.43546 C 965.04093,752.93326 975,789.48887 975,819.9516 c -3.32032,67.02004 -56.43787,115.76143 -156.03609,143.17857 -23.23847,6.09117 -46.4788,9.13847 -66.39882,15.23136 -23.23846,3.04558 -49.79724,-12.18578 -53.11756,-33.51003 -3.32031,-21.32425 13.2794,-45.69407 36.51786,-48.74139 19.92002,-3.04558 39.84004,-6.09288 56.43974,-12.18578 79.67821,-21.32424 89.63728,-45.69407 89.63728,-67.01833 0,-15.23135 -3.32032,-27.41713 -16.59971,-42.6485 -23.23846,-30.46272 -63.07849,-48.74139 -102.91666,-70.06563 -19.92003,-9.13847 -36.51973,-18.27694 -56.43975,-27.41713 -69.71726,-39.6012 -109.55729,-91.3899 -112.87574,-149.26975 -3.32031,-36.55562 9.95908,-73.11122 39.83817,-115.75972 6.64063,-9.13847 13.27939,-21.32425 23.24033,-30.46273 13.2794,-15.23307 23.23846,-30.46444 33.19941,-45.69579 26.55878,-48.74139 23.23847,-109.66683 -6.64063,-158.40856 -3.32032,-3.04628 -6.64063,-6.09255 -13.27938,-15.23153 -43.15849,-42.64851 -106.23699,-67.019215 -172.63581,-67.019215 -63.0785,0 -122.83668,24.370705 -165.99516,67.019215 -6.64064,6.09253 -9.96095,12.18525 -13.2794,15.23153 -29.88096,48.74173 -33.1994,109.66717 -6.64062,158.40856 9.95907,15.23135 19.92002,30.46272 33.1994,45.69579 6.63876,9.13848 16.5997,18.27696 23.23847,30.46273 29.87909,39.60119 43.16035,79.2041 39.84003,115.75972 -3.32031,57.87985 -43.15848,109.66855 -112.87761,149.26975 -16.5997,9.14019 -36.51972,18.27866 -56.43787,27.41713 -39.83947,21.32424 -79.67858,39.60291 -102.91798,70.06563 -9.95963,12.18578 -16.59952,27.41715 -16.59952,42.6485 0,21.32426 13.27958,45.69409 89.63766,67.01833 79.67708,21.32426 162.6756,21.32426 252.31288,21.32426 l 26.56065,0 c 13.27939,0 26.55878,6.09289 33.19753,15.23308 9.96095,9.13847 13.28127,21.32426 9.96095,33.5083 0,18.27867 -19.92002,33.51003 -43.15848,33.51003 l 0,0 z"
     id="path4"
     style="fill:#ffffff;fill-opacity:1"
     inkscape:connector-curvature="0" />
</svg>
